<svg version="1.1" viewBox="0 0 2296.3 1659.7" xmlns="http://www.w3.org/2000/svg">
<g>
	<path d="m1523.3 30.045c10.583-0.916 21.038 1.554 31.578 2.087 41.463 2.661 134.08 48.923 134.26 150.29-4.807 93.389-94.937 138.81-142.45 137.51-13.692 0.043-27.511 1.15-41.075-1.32-48.011-8.371-96.217-39.054-120.29-90.221-21.908-51.404-8.76-84.029-4.216-101.21 6.665-22.507 22.678-40.373 38.818-56.726 12.265-10.796 26.425-19.398 41.096-26.553 25.944-8.706 23.595-10.494 62.284-13.863z"/>
	<path d="m1291.2 217.38c15.099-1.351 4.087-1.425 191.47 180.06 364.63 359.37 349.6 337.62 349.66 348.79-2.13 0.381-146.19 0.821-153.72-2.023-16.13-10.891-78.202-123.55-258.1-150.86-9.859-1.235-19.335-4.685-29.321-4.94-30.407-0.426-60.814-3.769-91.222-1.32-13.819 1.363-27.767 0.256-41.48 2.577-22.678 1.895-44.929 6.899-67.479 9.582-8.794 1.299-17.163 4.45-25.85 6.175-105.42 16.911-264 88.846-266.13 89.667-50.987 18.038 21.818 16.859-172.26-4.195-11.499-0.106-22.507-4.067-33.963-4.301-18.994-0.17-37.668-4.259-56.577-5.6-22.827-4.642-46.59-3.343-69.055-9.795 1.312-19.976 140.33-197.72 321.79-320.21 124.63-80.718 255.57-133.04 402.24-133.6z"/>
	<path d="m1748.5 447.87c13.518 2.996 547.18 360.33 415.86 433.09-54.434 26.574-124.13 13.943-165.98 20.293 9.072 11.886 60.622 61.293 65.158 65.371 0 2.577 0.021 5.132 0.021 7.73-26.926-5.042-79.28-28.303-184.36-10.604-229.97 41.091-363.06 271.31-277.65 479.4 4.301 12.734 12.712 23.891 15.012 37.285 0 0-866.53-132.55-885.09-134.43-6.482-31.231 34.861-167.94-114.45-328-123.62-123.25-310.05-192.26-479.79-229.72-27.107-4.94-53.894-11.584-81.32-14.586-6.069-0.639-16.162-1.448-14.48-10.114 0.706-5.061 36.335-204.48 39.691-213.28 5.662-3.323 6.883 0.203 179.29 1.661 41.152 3.082 138.54 0.49 160.38 4.301 45.576 7.487 77.145 103.33 100.4 161.64 2.291 8.513-0.989 5.267 312.14 43.929 16.311 1.32 32.494 5.153 48.954 4.11 17.444-1.203 501.13-265.25 725.22-16.375 13.351 13.883 24.104 29.896 35.241 45.547 3.066 5.025 9.22 5.302 14.501 5.409 14.927 0.064 29.79 2.385 44.759 1.64 68.276-1.589 163.36 11.928 195.56-43.226 20.973-34.438 3.227-79.451-2.811-98.483-39.543-91.289-126.11-182.05-142.73-202.27-2.811-2.706-2.939-6.773-3.535-10.329z"/>
	<path d="m318.8 1007.4c77.622-11.133 172.28 12.113 240.57 70.652 102.38 83.768 139.54 230.04 88.815 354.37-35.986 92.031-118.41 164.24-214.4 187.72-25.188 4.16-82.685 24.149-183.89-9.369-23.301-9.785-65.976-21.912-127.74-87.09-12.201-12.35-20.953-27.49-30.79-41.671-10.391-14.65-17.248-31.365-24.488-47.698-71.684-177.95 37.793-376.22 206.14-417.46 14.735-5.474 30.364-7.071 45.781-9.456m29.704 95.224c-19.335 2.47-38.818 4.812-57.493 10.689-197.67 77.703-186.72 325.98-17.908 400.13 60.493 26.115 141.57 22.555 207.55-22.869 108.92-79.222 117.99-229.38 35.496-318.32-13.479-16.609-31.344-28.789-49.145-40.287-33.245-20.909-82.507-32.53-118.5-29.343z"/>
	<path d="m1915.7 1015.4c150.08-16.265 291.01 80.281 328.84 225.65 29.757 112.58-5.179 231.86-93.223 310.25-57.053 45.872-75.751 48.335-97.226 58.28-74.494 29.219-167.65 23.126-225.41-3.684-18.653-6.196-35.305-16.779-51.977-26.894-189.43-123-186.63-415.76 27.532-530.06 34.75-17.757 72.78-28.915 111.47-33.536m27.724 93.862c-16.247 1.405-32.792 1.831-48.485 6.601-164.28 41.07-216.87 254.26-82.235 367.55 114.6 94.729 288.92 42.26 333.67-98.866 31.452-94.995-10.605-200.74-98.674-249.07-13.734-8.581-29.449-13.032-44.333-19.058-19.656-4.407-39.778-7.239-59.943-7.154z"/>
	<path d="m394.48 1151.5c145.96 34.654 180.24 219.86 55.597 304.24-94.723 58.065-214.9 21.379-252.73-87.964-4.855-19.952-9.71-40.436-7.538-61.112 2.236-23.104 7.346-46.377 18.823-66.776 30.572-60.855 101.74-103.06 185.85-88.39z"/>
	<path d="m2008.7 1166.1c108.12 42.551 136.34 181.34 60.24 264.62-27.546 28.526-60.235 49.68-102 53.404-149.92 17.115-233.15-143.86-159.57-253.39 43.042-67.239 127.04-93.856 201.33-64.626z"/>
</g>
</svg>
