<svg version="1.1" viewBox="0 0 624.88 173.55" xmlns="http://www.w3.org/2000/svg">
 <g transform="translate(225.5 -34.844)" fill="#cfd8dc">
  <path d="m171.02 207.57c-0.67911-0.43969-1.9387-1.1844-2.799-1.6549-0.8604-0.47054-2.0704-1.3318-2.689-1.9138-0.61851-0.58208-2.1939-1.9315-3.501-2.9985-2.6176-2.1373-5.4718-4.8617-5.4806-5.2314-3e-3 -0.1302-0.47766-0.79234-1.0546-1.4714-1.3381-1.5751-1.2879-1.512-3.4062-4.282-1.7428-2.2791-3.0218-3.6989-8.6646-9.6176-1.669-1.7507-2.7279-3.1567-2.7339-3.6304-6e-3 -0.4251-0.14732-0.8578-0.31518-0.96155-0.16782-0.10373-0.39639-0.78779-0.50786-1.5201-0.51163-3.361-0.80622-3.9288-3.0676-5.9156-2.2834-2.0061-2.3098-2.0515-1.6032-2.758 0.2997-0.2997 0.54491-0.69803 0.54491-0.88514 0-0.18713 0.23813-0.43162 0.52917-0.5433 0.75951-0.29146 0.65511-1.098-0.34785-2.6868-1.1507-1.8228-1.1431-1.7782-0.55647-3.2888 0.62397-1.6066 1.2958-1.6769 1.6267-0.17012 0.1371 0.62423 0.38227 1.3783 0.54483 1.6757 0.59298 1.085 1.7314 3.8632 1.7314 4.2257 0 0.20467 0.14613 0.37213 0.32473 0.37213 0.17862 0 0.42936 0.47625 0.55721 1.0583 0.12785 0.58208 0.36597 1.0583 0.52917 1.0583 0.16319 0 0.40132 0.47625 0.52916 1.0583 0.12785 0.58209 0.37862 1.0583 0.55721 1.0583 0.17862 0 0.32475 0.19241 0.32475 0.42756 0 0.89797 3.252 6.9808 3.732 6.9808 0.27578 0 0.50139 0.15875 0.50139 0.35277s0.16745 0.35277 0.37213 0.35277c0.75441 0 4.4466 2.7876 5.6343 4.2542 0.674 0.83207 1.5259 1.796 1.8931 2.142 0.56808 0.53525 0.63214 0.93186 0.42926 2.658-0.13116 1.1159-0.32002 2.3537-0.41966 2.7509-0.12623 0.50294 0.27871 1.262 1.3346 2.5016 0.83373 0.9788 2.0616 2.4413 2.7286 3.2499 0.73874 0.89561 2.1178 1.923 3.5277 2.6284 1.2732 0.63694 2.3943 1.2406 2.4913 1.3416 0.097 0.10097 0.64646 0.39066 1.221 0.64373 0.57454 0.25309 1.9403 1.1852 3.035 2.0714 1.5469 1.2522 2.1332 2.0128 2.6305 3.4131 0.352 0.99108 0.74771 1.8813 0.87929 1.9783 0.36219 0.26699 0.75364 2.1197 0.44283 2.0959-0.14922-0.0114-0.82692-0.3805-1.506-0.82021zm19.954-5.2819c-2.2357-2.2779-3.9899-4.3765-4.1706-4.9898-0.6777-2.2996-1.033-3.615-1.5245-5.6444-0.28194-1.1642-0.60336-2.4342-0.71422-2.8223-0.11088-0.38807-0.27887-1.1024-0.37327-1.5875-0.0945-0.48506-0.30925-1.1994-0.47736-1.5875-0.16809-0.38807-0.48223-1.4993-0.6981-2.4694-0.40569-1.8232-1.0074-4.35-1.7641-7.4083-0.24006-0.97015-0.62995-2.2328-0.86646-2.8059-0.3991-0.967-0.44866-0.8147-0.68892 2.1167-0.1424 1.7372-0.3669 4.3188-0.4989 5.737l-0.24001 2.5784-1.7639-1.2488c-0.97012-0.68681-2.0611-1.4502-2.4245-1.6964s-0.84627-0.60645-1.0733-0.80047c-0.22693-0.19403-0.65976-0.51152-0.96178-0.70557-0.30205-0.19402-1.1119-0.74419-1.7998-1.2226l-1.2507-0.86984-0.22016-8.655c-0.3016-11.855-1.0562-23.653-1.5316-23.947-0.21106-0.13044-0.49292-0.67214-0.62635-1.2038-0.13345-0.53163-0.37346-0.9666-0.53337-0.9666-0.15992 0-0.39952-0.34264-0.5324-0.7614-0.13292-0.41875-0.93736-1.9073-1.7877-3.3078-0.85029-1.4006-1.546-2.7247-1.546-2.9427 0-0.21802-0.12393-0.3963-0.27543-0.3963-0.15151 0-0.46133-0.43656-0.68853-0.97014-0.2272-0.53359-0.81764-1.6821-1.312-2.5522-0.85143-1.4984-0.899-1.8575-0.899-6.7911v-5.2089l-15.346-0.0111-1.3537-4.3159c-0.74454-2.3738-1.4877-4.5744-1.6516-4.89s-0.41177-1.1812-0.55099-1.9233c-0.13923-0.74215-0.54684-1.6646-0.90583-2.05-0.35899-0.38532-0.85032-1.147-1.0918-1.6926-0.24154-0.54565-0.55914-0.99208-0.7058-0.99208-0.14669 0-0.26665-0.2249-0.26665-0.49977 0-0.27488-0.11906-0.55269-0.26458-0.61735-0.40164-0.17851-1.8521-2.3315-1.8521-2.749 0-0.20188-0.15574-0.36706-0.34605-0.36706-0.19037 0-0.44569-0.39688-0.56746-0.88194-0.12173-0.48506-0.36681-0.88194-0.54461-0.88194-0.17775 0-0.47768-0.35719-0.66646-0.79375-0.37402-0.86503-1.112-2.101-1.4218-2.3812-0.10723-0.09701-0.57512-0.8114-1.0397-1.5875-0.46456-0.7761-0.94441-1.4905-1.0663-1.5875-0.12187-0.09701-0.52168-0.69234-0.88842-1.3229-0.70459-1.2113-1.3527-1.4533-1.8201-0.67945-0.15516 0.25689-0.82683 0.8522-1.4926 1.3229-0.66575 0.47072-1.4769 1.094-1.8026 1.385-0.32565 0.29104-1.1988 1.0054-1.9402 1.5875s-1.8142 1.463-2.384 1.9577l-1.0358 0.89934 0.38139 2.8048c0.20977 1.5427 0.62527 4.3527 0.92332 6.2444 0.69911 4.4373 1.4405 9.2782 1.9315 12.612 0.55322 3.756 0.61015 3.9388 1.5929 5.1152 1.209 1.4473 1.3475 1.6309 2.023 2.6845 0.32467 0.50636 0.81901 1.1494 1.0986 1.429 0.61944 0.61942 3.0681 7.8483 3.0681 9.0575 0 0.34248 0.14203 0.77349 0.3156 0.95782 0.31562 0.33515 0.7294 1.9174 1.5891 6.0767l0.45754 2.2137-1.0929 0.49223c-0.60108 0.27072-1.4898 0.60365-1.9748 0.73983-1.8242 0.51218-1.7864 0.20626-0.74023 5.982 0.21085 1.1642 0.38428 2.389 0.38542 2.7218 0 0.37883-1.3347-0.70943-3.5729-2.9104-1.9662-1.9335-3.6333-3.5155-3.7042-3.5155-0.25458 0-0.12285 1.0796 0.20503 1.6805 0.18383 0.33692 0.67775 1.8032 1.0976 3.2583 1.5846 5.4922 1.8026 6.1894 2.1214 6.7863 0.33377 0.62468 0.4467 1.6805 0.17971 1.6805-0.0812 0-0.80849-0.635-1.6163-1.4111-0.8078-0.7761-1.6145-1.4111-1.7927-1.4111-0.40598 0-0.43141 6.4402-0.0272 6.8969 0.16322 0.18432 0.65871 1.4464 1.1011 2.8046s0.97816 2.6858 1.1906 2.9504c0.50241 0.62542 0.44897 4.2077-0.0706 4.727-0.22069 0.22069-0.40124 0.68699-0.40124 1.0362s-0.14504 0.635-0.32232 0.635c-0.3371-1e-5 -3.2054-4.763-3.2054-5.3226 0-0.17698-0.15875-0.32178-0.3528-0.32178-0.19402 0-0.35277-0.17768-0.35277-0.39484 0-0.38891-2.3976-4.5535-2.8194-4.8969-0.11909-0.097-0.59669-0.8114-1.0613-1.5875-0.46455-0.7761-0.95072-1.4905-1.0803-1.5875-0.1296-0.097-0.34714-0.53359-0.48337-0.97015s-0.39579-0.79375-0.57671-0.79375c-0.18095 0-0.32901-0.14752-0.32901-0.32782 0-0.39473-2.6853-4.4847-3.1213-4.7543-0.32994-0.20394-2.1704 1.6848-2.1704 2.2274 0 0.17954-0.12481 0.37936-0.27731 0.44402-0.15256 0.0647-0.64514 0.6413-1.0947 1.2814-1.3837 1.9702-1.5639 1.589-2.8863-6.1026-0.20016-1.1642-0.46458-2.3548-0.58761-2.6458-0.12301-0.29104-0.42254-1.561-0.66564-2.8223-0.24307-1.2612-0.6831-3.4044-0.9778-4.7625-0.29471-1.3582-0.76215-3.5806-1.0388-4.939-0.5443-2.6726-1.2082-4.7416-1.6921-5.2739-0.16756-0.18433-0.30464-0.55023-0.30464-0.81312 0-0.41584-0.66543-2.0996-1.7768-4.4963-0.4917-1.0602-1.0637-3.5859-1.4381-6.35-0.32607-2.4071-1.1899-5.3054-1.7822-5.9796-0.16198-0.18433-0.29448-2.0348-0.29448-4.1122 0-3.6034 0.0325-3.7685 0.70556-3.5925 0.38804 0.10148 0.70554 0.31403 0.70554 0.47236 0 0.15832 0.35719 0.39933 0.79375 0.53557s0.87313 0.34538 0.97015 0.46474c0.37939 0.4668 2.4609 1.8045 2.808 1.8045 0.20188 0 0.36806 0.11907 0.36928 0.26459 0 0.14552 0.48771 0.54086 1.081 0.87857 1.0724 0.61037 1.0775 0.60931 0.85754-0.17639-0.12168-0.43471-0.36029-1.1079-0.5302-1.4959-0.16992-0.38806-0.64955-1.8168-1.0659-3.175-0.41632-1.3582-0.88212-2.7128-1.0351-3.0102-0.15301-0.29742-0.39611-1.0912-0.5402-1.7639-0.1441-0.67273-0.37447-1.3819-0.51195-1.5759-0.13745-0.19403-0.6214-1.5434-1.0754-2.9985l-0.82544-2.6458-4.659-3.0869c-4.459-2.9543-5.5377-3.4578-5.9563-2.7805-0.10411 0.16846-1.0223 0.41677-2.0405 0.55184-1.0181 0.13506-2.0586 0.41767-2.312 0.62802-0.34374 0.28527-0.58959 0.21229-0.96774-0.28726-0.27879-0.36835-0.51196-0.87029-0.51813-1.1155-6e-3 -0.24516-0.15817-0.72141-0.33779-1.0583-1.684-3.1589-4.0611-14.466-4.4302-21.074l-0.1774-3.175-1.5016-1.3695c-4.4918-4.0965-5.2059-4.8482-5.2059-5.4816 0-0.3806-0.14652-0.78258-0.32562-0.89329-0.17912-0.11069-0.4322-0.68638-0.56242-1.2793-0.13023-0.59293-0.45898-1.5039-0.73055-2.0244-0.27154-0.52052-0.49471-1.2148-0.4959-1.5429 0-0.32808-0.1487-0.6871-0.3278-0.7978-0.17912-0.11069-0.43219-0.68638-0.56242-1.2793s-0.45897-1.5039-0.73054-2.0244c-0.27154-0.52052-0.49472-1.2148-0.49591-1.5429 0-0.32808-0.1487-0.6871-0.32779-0.7978-0.17913-0.11069-0.4322-0.68638-0.56243-1.2793s-0.45897-1.5039-0.73054-2.0244c-0.27154-0.52052-0.49472-1.2148-0.49591-1.5429 0-0.32811-0.14332-0.68379-0.31586-0.79042-0.17253-0.10664-0.41955-0.63193-0.5489-1.1673-0.40106-1.6599-1.0537-2.9139-1.5166-2.9139-0.24368 0-0.44307 0.21352-0.44307 0.4745s-0.3175 0.76182-0.70554 1.113c-0.38806 0.35118-0.70556 0.85204-0.70556 1.113s-0.11906 0.47472-0.26458 0.47498c-0.14552 2.64e-4 -0.89959 0.95255-1.6757 2.1162-0.77613 1.1636-1.5302 2.1159-1.6757 2.1162-0.14552 2.65e-4 -0.26458 0.24359-0.26458 0.54073 0 0.29713-0.23813 0.63161-0.52917 0.74329-0.29104 0.11169-0.52917 0.41286-0.52917 0.66929s-0.22587 0.6921-0.50194 0.96816c-0.52845 0.52848-1.8178 2.3185-3.9944 5.5457-1.6835 2.496-1.7608 2.5724-6.9583 6.8792-0.93663 0.7761-2.1238 1.808-2.6382 2.2931-0.5144 0.48506-1.483 1.3048-2.1524 1.8216-0.66945 0.51678-1.7096 1.3899-2.3115 1.9403-1.161 1.0616-1.7715 1.5745-4.5463 3.819-0.95682 0.77401-2.1726 1.8059-2.7017 2.2931-0.52914 0.48715-1.607 1.4182-2.3953 2.069-0.78824 0.6508-1.4332 1.4049-1.4332 1.6757 0 0.27083-0.14153 0.49244-0.31454 0.49244-0.17298 0-0.4237 0.43498-0.55713 0.9666-0.13343 0.53163-0.34907 1.0476-0.47921 1.1465-0.13013 0.09896-1.1098 1.9262-2.1769 4.0606-1.0671 2.1343-2.0468 3.9616-2.1769 4.0606-0.13013 0.09896-0.34578 0.61489-0.47921 1.1465-0.13343 0.53163-0.37153 0.9666-0.52911 0.9666s-0.39111 0.47625-0.51896 1.0583c-0.12784 0.58208-0.36136 1.0583-0.51895 1.0583-0.15758 0-0.39568 0.43498-0.52911 0.9666-0.13344 0.53163-0.34923 1.0476-0.47953 1.1465-0.13032 0.09896-0.59434 0.91239-1.0311 1.8076-0.77607 1.5906-0.80542 3.4097-0.0705 4.3696 0.14856 0.19403 0.38266 1.1088 0.52022 2.0328 0.13756 0.92403 0.39055 1.7668 0.56219 1.8729 0.17164 0.10608 0.31207 0.47673 0.31207 0.82363 0 0.34689 0.27782 0.95773 0.61736 1.3574 0.33954 0.39965 0.85547 1.0736 1.1465 1.4977 0.29105 0.42408 1.2291 1.7411 2.0846 2.9266l1.5554 2.1556 0.28827 4.9556c0.15854 2.7255 0.39108 5.8685 0.51675 6.9839 0.15788 1.4017 0.10597 2.0285-0.16798 2.0285-0.21804 0-0.39645-0.16858-0.39645-0.37462 0-0.4889-3.1361-7.3864-3.3584-7.3864-0.0399 0-1.0071 0.87196-2.1494 1.9377-1.1423 1.0657-2.1837 1.9389-2.3144 1.9403-0.22513 2e-3 -1.9016-1.3176-3.1329-2.4669-0.31184-0.29105-1.4256-1.2436-2.475-2.1167-2.8022-2.3314-3.2589-2.9035-3.983-4.989-0.36092-1.0396-0.95623-2.5561-1.3229-3.37-0.36668-0.81397-0.66669-1.6348-0.66669-1.824 0-0.18926-0.47625-0.44871-1.0583-0.57655-0.58208-0.12785-1.0583-0.3786-1.0583-0.55719s-0.30813-0.32475-0.68474-0.32475-0.77198-0.14116-0.8786-0.31369c-0.10664-0.17253-0.62643-0.42225-1.1551-0.55494-2.4987-0.62711-3.864-1.5621-4.758-3.2581-1.5993-3.0345-2.2219-4.1598-2.4014-4.34-0.097-0.09731-0.4708-0.73242-0.83064-1.4114-0.35983-0.67895-1.1737-2.1869-1.8086-3.3512-0.63492-1.1642-1.4518-2.6723-1.8152-3.3512-0.36343-0.67895-0.75845-1.3139-0.87783-1.4111-0.11938-0.09716-0.33875-0.56613-0.48752-1.0421-0.68615-2.1955-0.72538-2.1669-9.8616 7.1943-4.7948 4.913-8.9334 9.3477-9.1964 9.8549-0.26317 0.50726-0.58573 1.6375-0.71681 2.5117-0.13109 0.87415-0.36105 1.5894-0.51102 1.5894-0.14996 0-0.37922 0.71067-0.50948 1.5793-0.13025 0.8686-0.38639 1.6717-0.56922 1.7847s-0.3324 0.58203-0.3324 1.0423c0 0.60012-1.0728 1.8798-3.7923 4.5233-2.0858 2.0276-4.4191 4.2214-5.185 4.875-0.76605 0.65363-2.2082 2.0126-3.2049 3.02l-1.812 1.8316-6.232 0.24978c-3.4277 0.13738-6.2312 0.26567-6.2304 0.28509 0.0112 0.242 1.7211 4.1688 1.888 4.3355 0.12489 0.12489 0.22707 0.51811 0.22707 0.87382 0 0.3557 0.14154 0.64674 0.31453 0.64674 0.173 0 0.41164 0.38696 0.53036 0.8599 0.1187 0.47294 0.70437 1.9414 1.3015 3.2631 0.59714 1.3218 1.311 2.9035 1.5863 3.515 0.27532 0.6114 0.50625 1.2464 0.51318 1.4111 7e-3 0.1647 0.38622 1.0932 0.84286 2.0634 0.45667 0.97015 0.77084 1.8277 0.69816 1.9057-0.0727 0.078-0.9679-0.44926-1.9894-1.1717-1.0215-0.72245-2.8474-1.9769-4.0576-2.7876-1.2102-0.81077-2.2024-1.6726-2.2048-1.9151-2e-3 -0.24254-0.12564-0.44098-0.27366-0.44098-0.26717 0-0.48424-0.33861-1.4876-2.3204-0.2871-0.56706-0.60825-1.1104-0.71369-1.2074s-0.45751-0.5946-0.78234-1.1058c-0.5818-0.91546-0.92774-1.0353-4.5874-1.5898-1.1821-0.17909-1.3369-0.32795-1.5453-1.4858-0.12737-0.7077-0.35187-1.4455-0.49887-1.6395-0.147-0.19403-0.37933-1.1862-0.51628-2.2049-0.13695-1.0186-0.39286-1.8521-0.56867-1.8521-0.17582 0-0.31967-0.188-0.31967-0.41778 0-0.50837-1.3751-3.3988-1.7176-3.6105-0.28885-0.17852-6.0211 0.6536-7.8073 1.1334-1.1201 0.30083-3.4404 1.3988-3.8812 1.8367-0.16848 0.16729-2.0892 1.2326-4.4088 2.4454-0.58193 0.30427-1.1376 0.63256-1.2347 0.72959-0.0972 0.097-0.97042 0.57327-1.9405 1.0583-0.97014 0.48506-1.8168 1.001-1.8815 1.1465-0.0647 0.14552-0.24883 0.26458-0.40923 0.26458s-1.1787 0.50948-2.2628 1.1322l-1.9712 1.1322 1.8513 1.1529c1.0182 0.6341 2.0365 1.1565 2.2628 1.1609 0.22636 4e-3 0.4645 0.13627 0.52916 0.29308 0.0647 0.15681 0.91134 0.81769 1.8815 1.4686 2.4513 1.6448 2.7861 2.0586 3.2901 4.0672 0.95527 3.8076 1.095 4.2251 1.4539 4.3447 0.20429 0.0681 0.37144 0.32411 0.37144 0.5689 0 0.2448 0.3175 0.73242 0.70557 1.0836 0.38806 0.35118 0.70556 0.78401 0.70556 0.96181 0 0.17781 0.23813 0.56142 0.52917 0.85246 0.95282 0.95279 0.62849 1.4893-0.97015 1.605l-1.4993 0.10847 4.4701 4.4942c4.033 4.0547 5.0739 5.5502 3.1451 4.5178-0.3793-0.203-1.167-0.3691-1.7504-0.3691s-1.1588-0.15875-1.2787-0.35277-0.56819-0.35276-0.99618-0.35276c-0.728 0-3.375-1.2169-3.7663-1.7315-0.097-0.12757-1.0244-0.76856-2.0608-1.4244s-2.0683-1.3671-2.2931-1.5805c-0.897-0.85172-2.2504-1.5393-2.5949-1.3183-0.20049 0.12862-0.4867 0.63074-0.636 1.1158-0.14932 0.48506-0.36915 0.96131-0.48853 1.0583-0.11937 0.097-0.51671 0.76589-0.883 1.4864l-0.66595 1.31-1.1484-1.504c-0.63162-0.82719-1.476-2.0428-1.8765-2.7014-0.51054-0.8395-0.78459-1.0451-0.91707-0.68797-0.10392 0.28014-0.22981 3.4197-0.27974 6.9765l-0.0908 6.4672-1.5958-1.1756c-3.2441-2.3898-3.0033-2.4258-4.4855 0.67114l-1.311 2.7395-0.24283-1.4111c-0.13356-0.77611-0.41627-2.6017-0.62823-4.0569-0.55504-3.8105-1.0655-5.2634-2.4791-7.0556-0.68863-0.87313-1.3391-1.6669-1.4454-1.7639-0.10636-0.097-0.5774-0.73203-1.0467-1.4111-0.46934-0.67911-1.057-1.4445-1.3059-1.7009-0.74218-0.76446-0.52374-1.823 0.78214-3.7904 0.6791-1.0231 1.2347-2.1811 1.2347-2.5733 0-0.39225 0.1379-0.79838 0.30644-0.90255s0.41362-0.85971 0.54465-1.679c0.13102-0.81931 0.37512-1.6562 0.5425-1.8599 0.53176-0.64707 0.85479-3.7216 0.39102-3.7216-0.41224 0-3.1824-1.1345-4.3373-1.7763-1.2062-0.67027-1.5934-0.38939-1.8407 1.3353-0.1322 0.92162-0.41347 2.271-0.62506 2.9985l-0.3847 1.3229h-5.5327v1.9194c0 1.6842-0.42278 2.8199-0.76362 2.0515-0.17512-0.39484-2.3268-1.8543-2.7337-1.8543-0.19302 0-0.39788 1.0472-0.45524 2.3271l-0.10432 2.3271-1.8351-1.3569c-1.9462-1.4392-3.0403-3.0395-3.4597-5.0612-0.14092-0.67911-0.35446-1.3935-0.47455-1.5875-0.12008-0.19403-0.45861-1.0535-0.75227-1.9099-0.46535-1.357-0.93914-1.8329-3.6878-3.7042-2.4529-1.6699-3.689-2.8334-5.5614-5.235l-2.4076-3.0882 0.32316-4.4966 0.32319-4.4966-0.9217-0.77828c-0.50694-0.42804-2.2349-1.6187-3.8399-2.6458-2.4376-1.56-2.9192-2.0207-2.9242-2.7972-3e-3 -0.51131-0.20434-1.4004-0.44688-1.9758l-0.44098-1.0462-2.1167 0.99467c-1.1642 0.54705-2.3151 0.99962-2.5576 1.0057-0.24254 6e-3 -0.44098 0.16978-0.44098 0.36381 0 0.19402-0.19583 0.35276-0.43516 0.35276-0.23934 0-1.4194 0.48946-2.6224 1.0876-1.5525 0.772-2.7826 1.7676-4.2392 3.4306-1.1286 1.2886-2.8456 3.1623-3.8158 4.1638-0.97014 1.0014-2.1592 2.2755-2.6423 2.8313-2.8482 3.2763-3.4385 3.9767-4.2368 5.0266-0.48506 0.63796-1.0459 1.3447-1.2463 1.5705-0.20042 0.22578-0.75391 0.96398-1.23 1.6405-0.47606 0.67649-1.1058 1.4827-1.3995 1.7916-0.89678 0.94334-1.9032 2.2179-2.7861 3.5285-0.81603 1.2112-2.8374 2.7985-3.5637 2.7985-0.19675 0-0.35772 0.15875-0.35772 0.35277s-0.17639 0.35277-0.39198 0.35277-1.7061 0.79375-3.3121 1.7639c-1.6061 0.97015-3.0967 1.7639-3.3123 1.7639-0.21559 0-0.39198 0.15875-0.39198 0.35277 0 0.19403-0.22679 0.35277-0.50398 0.35277-0.27718 0-0.72142 0.19844-0.98716 0.44098-0.44509 0.40619-2.026 1.3212-4.6823 2.7099-0.58196 0.30427-1.1376 0.63257-1.2347 0.72959-0.26889 0.2685-1.522 1.0341-2.1169 1.2935-0.29104 0.12686-1.6612 0.90979-3.0448 1.7398-2.2883 1.3727-2.7985 1.5313-5.6444 1.7539-1.7208 0.13459-3.4065 0.38812-3.746 0.56338-0.44556 0.23-0.61735 0.18142-0.61735-0.17456 0-0.37139 0.84756-0.55546 3.4311-0.74509 3.0263-0.22215 4.9988-0.78362 5.7412-1.6344 0.097-0.11116 0.41452-0.31136 0.70556-0.44487s0.94864-0.51879 1.4613-0.85622c0.82142-0.54062 3.9558-2.4389 5.6727-3.4356 3.6137-2.0978 12.825-7.8216 12.915-8.0256 0.0647-0.14552 0.30279-0.26596 0.52917-0.26765 0.54779-4e-3 3.9547-3.7939 6.9379-7.7174 0.48506-0.63796 1.1201-1.4105 1.4111-1.7167s0.86087-1.0032 1.2663-1.5488c0.97769-1.3158 3.2194-3.9785 4.6426-5.5144 0.63058-0.68048 1.1465-1.3391 1.1465-1.4635 0-0.12447 0.75406-1.0353 1.6757-2.0241 0.92162-0.98877 2.6101-2.849 3.7521-4.1341 1.142-1.285 2.2929-2.3363 2.5576-2.3363 0.26471 0 0.48127-0.14154 0.48127-0.31454 0-0.17299 0.43498-0.4237 0.96661-0.55713 0.53162-0.13343 1.0476-0.34909 1.1465-0.47921 0.099-0.13014 1.7042-1.0063 3.5671-1.947l3.3872-1.7104 2.8382 2.0631c1.561 1.1347 3.1903 2.3013 3.6206 2.5923 0.43021 0.29104 1.469 1.0451 2.3082 1.6757 0.83923 0.63058 1.6809 1.1465 1.8704 1.1465s0.39746 0.11906 0.46212 0.26458c0.0647 0.14552 0.91134 0.66146 1.8815 1.1465 0.97015 0.48506 1.8433 0.96147 1.9403 1.0586 0.097 0.0972 0.97015 0.561 1.9403 1.0307 0.97015 0.46966 2.3488 1.219 3.0639 1.6653 1.1364 0.70927 1.9129 0.83741 6.1735 1.0189 7.4694 0.31805 9.5009 0.71747 11.393 2.2402 0.8727 0.70215 1.7472 1.3956 1.9432 1.541 0.19605 0.14538 0.99145 0.81638 1.7676 1.4911 0.7761 0.67474 1.5516 1.2305 1.7234 1.235 0.17178 5e-3 0.68014 0.40505 1.1297 0.89014s0.89636 0.88193 0.99291 0.88193c0.0965 0 0.8582 0.4563 1.6925 1.014 0.83433 0.55769 1.8742 1.124 2.3107 1.2585 0.43657 0.13448 0.79375 0.37995 0.79375 0.5455 0 0.16553 0.47625 0.40558 1.0583 0.53342 0.58208 0.12785 1.0583 0.37859 1.0583 0.55721 0 0.17861 0.15177 0.32475 0.33726 0.32475 0.1855 0 1.1071 0.45392 2.048 1.0087l1.7108 1.0087 2.0971-1.1982c1.1534-0.65903 2.494-1.3875 2.979-1.6189 0.48495-0.23138 0.96144-0.50329 1.0586-0.60426 0.0972-0.10096 0.73216-0.47797 1.4111-0.8378s2.1869-1.1737 3.3512-1.8086c1.1642-0.63492 2.6723-1.4518 3.3512-1.8152 0.67895-0.36343 1.314-0.74017 1.4111-0.83719 0.44392-0.44323 2.7943-1.4303 4.2336-1.778 5.3851-1.3006 5.8232-1.3607 7.2319-0.99192 0.7761 0.20318 1.5698 0.49432 1.7639 0.64698 0.19402 0.15265 0.8687 0.38788 1.4993 0.52271 0.63058 0.13484 1.1465 0.39129 1.1465 0.56991 0 0.17861 0.27781 0.32573 0.61735 0.32692 0.33954 1e-3 1.0432 0.22436 1.5637 0.49591 0.52052 0.27155 1.4333 0.60071 2.0285 0.73142 0.59516 0.13071 1.0821 0.35089 1.0821 0.48924 0 0.74856 3.3917 1.0637 9.2022 0.85495l6.1238-0.22001 5.9595-5.8513c3.2777-3.2181 6.1804-6.0619 6.4505-6.3196 0.75883-0.72408 1.3177-1.8527 1.777-3.5885 0.23104-0.87313 0.58505-2.1431 0.78669-2.8223 0.20163-0.67911 0.58391-2.011 0.84952-2.9599 0.51136-1.8268 1.2393-2.7641 5.9597-7.6734 5.0967-5.3007 10.797-11.384 11.497-12.269l0.67542-0.85413 2.2585 1.258c1.2422 0.69188 3.0522 1.6928 4.0225 2.2243 0.97015 0.53147 1.9226 1.081 2.1167 1.2211 2.1164 1.5284 5.2298 2.7435 11.465 4.4744 1.0671 0.29625 2.2578 0.66937 2.6458 0.82918 1.3043 0.53713 5.5814 1.7555 6.1624 1.7555 0.31657 0 0.75541 0.17983 0.9752 0.39963 0.76973 0.76973 1.4434-0.02794 3.5182-4.1659 7.8965-15.748 8.5685-16.94 10.648-18.877 2.2526-2.0985 7.1422-6.5207 10.46-9.4599 1.2045-1.0671 3.2819-2.9165 4.6162-4.1098 1.3344-1.1932 2.9025-2.5787 3.4846-3.079 0.58208-0.50025 1.1859-1.0321 1.3418-1.182 0.25083-0.24109 3.0192-4.1016 4.2108-5.8719 0.24452-0.36333 0.60338-0.84386 0.7974-1.0679s0.74258-0.95861 1.219-1.6325c0.47644-0.67387 1.0003-1.384 1.1641-1.578 0.3107-0.36793 4.281-5.887 5.2017-7.2308 0.77274-1.1279 1.6422-2.1177 1.8604-2.1177 0.10457 0 0.98497 0.75406 1.9565 1.6757 2.1743 2.0626 8.626 8.0828 11.667 10.886 1.2399 1.1431 3.3263 3.1102 4.6368 4.3714 1.3104 1.2612 4.1328 3.9312 6.2717 5.933 2.1392 2.002 4.164 4.2246 4.4995 4.939 0.33555 0.71438 0.70583 1.3782 0.82286 1.4752 0.11699 0.09702 0.60949 0.94295 1.0944 1.8799 1.6371 3.1631 1.8719 3.5878 2.0826 3.7645 0.11557 0.09701 0.55287 0.8114 0.97181 1.5875 3.6203 6.7067 3.5179 6.5664 6.0471 8.3013 1.2641 0.86712 2.4723 1.7353 2.6847 1.9294 0.21254 0.19403 1.3384 1.1029 2.5021 2.0198 2.4482 1.9291 4.3384 3.4684 4.8985 3.9891 0.21563 0.20041 0.94768 0.75173 1.6268 1.2252 0.67911 0.47342 1.3935 0.98835 1.5875 1.1443 2.413 1.9392 6.1132 4.4818 6.5328 4.4889 0.29461 0.0051 1.3041-0.62579 2.2433-1.4019 0.93922-0.7761 1.8137-1.4111 1.9434-1.4111 0.12967 0 0.72051-0.43656 1.313-0.97015 0.59251-0.53358 1.8384-1.5102 2.7686-2.1703 1.4941-1.0602 1.7294-1.1322 2.0176-0.61735 0.17933 0.32054 0.46561 0.5828 0.63608 0.5828 0.27885 0 3.1017 1.6463 5.5883 3.2594 0.52017 0.33742 1.1839 0.72271 1.475 0.85622s0.60854 0.33512 0.70557 0.44804c0.3512 0.40886 4.5252 2.8448 4.8744 2.8448 0.19712 0 0.4113 0.13174 0.47599 0.29274 0.0647 0.16101 1.2799 0.99446 2.7006 1.8521 1.4206 0.85765 3.008 1.839 3.5277 2.1808 0.51967 0.34182 1.2227 0.7175 1.5622 0.83489 0.33957 0.11739 0.61738 0.35367 0.61738 0.52507s0.14753 0.31163 0.32782 0.31163c0.18031 0 1.2629 0.62108 2.4058 1.3802 1.9881 1.3205 2.5929 1.9212 5.3803 5.3435 0.67911 0.83381 1.7904 2.1769 2.4695 2.9848 0.67907 0.8078 1.7903 2.1598 2.4694 3.0046 0.67911 0.84468 1.83 2.1973 2.5576 3.0057 0.7276 0.80841 1.3229 1.6374 1.3229 1.842 0 0.20467 0.12872 0.42503 0.28606 0.48972 0.15732 0.0647 1.3876 1.3872 2.7339 2.939s2.686 3.076 2.9771 3.3875c1.07 1.1447 8.218 9.1705 10.583 11.883 0.91075 1.0444 1.9994 1.9115 2.5536 2.0338 0.53133 0.1173 1.0567 0.35981 1.1673 0.53891 0.1107 0.17909 0.5094 0.32564 0.88598 0.32564 0.37664 0 0.68474 0.12596 0.68474 0.27991 0 0.15394 0.59532 0.46048 1.3229 0.68119 2.5762 0.78148 3.9688 1.3312 3.9688 1.5666 0 0.13114 0.51594 0.34875 1.1466 0.48358 0.63058 0.13484 1.3053 0.35309 1.4993 0.48501 0.19405 0.13192 1.3053 0.60637 2.4695 1.0543 1.1642 0.44797 2.5929 1.0123 3.175 1.254 2.5236 1.048 3.2448 1.2238 4.4098 1.0745 0.6791-0.087 3.3779-0.4087 5.9973-0.71485 8.4881-0.99208 8.9852-1.0689 9.7827-1.5117 0.79529-0.44148 16.349-11.996 16.676-12.388 0.097-0.11644 1.0892-0.83127 2.2048-1.5885 1.1157-0.75724 2.0285-1.5092 2.0285-1.6709 0-0.16176 0.21897-0.29413 0.48663-0.29413 0.26765 0 1.1179-0.59532 1.8895-1.3229 0.77161-0.7276 2.5672-2.3548 3.9902-3.6161 3.1102-2.7564 4.1587-3.8031 5.2959-5.2869 0.47382-0.6182 1.0235-1.3087 1.2215-1.5345 0.19807-0.22578 0.99182-1.2042 1.7639-2.1744 0.77213-0.97014 1.5022-1.8433 1.6224-1.9403 0.12023-0.097 1.0083-1.2083 1.9735-2.4694 1.6227-2.1203 2.2459-2.8866 4.1579-5.1133 0.38804-0.45188 0.94366-1.1672 1.2347-1.5895 0.63769-0.92538 1.741-2.1208 2.5531-2.7662 0.601-0.47765 1.5778 0.1588 5.193 3.3835 0.4894 0.43657 0.98829 0.79375 1.1087 0.79375 0.12036 0 0.79063 0.51594 1.4895 1.1465 0.6989 0.63058 1.4752 1.3054 1.7251 1.4996 0.24987 0.19421 1.01 0.80682 1.689 1.3614 0.6791 0.55454 1.8469 1.5069 2.5951 2.1164 0.74822 0.60944 1.7293 1.4256 2.1803 1.8136 0.45096 0.38807 1.5138 1.253 2.3619 1.9222 0.84809 0.66916 2.0895 1.9111 2.7586 2.7599 1.3626 1.7284 2.2975 2.9056 2.7252 3.4316 0.1578 0.19402 0.67665 0.90413 1.1531 1.578 0.47644 0.67387 1.025 1.4058 1.219 1.6266 0.19402 0.22075 0.82902 1.0069 1.4111 1.7471 1.0915 1.3879 1.5442 1.8449 8.1354 8.2121 4.83 4.6659 6.0375 5.7438 9.1509 8.1685 1.3582 1.0577 2.8662 2.2834 3.3515 2.7236 4.1836 3.7976 5.3726 4.6871 6.7635 5.0588 0.83971 0.2245 1.785 0.54121 2.1007 0.70379 0.31565 0.1626 1.1888 0.40656 1.9403 0.54214s1.5251 0.37036 1.7191 0.52173c0.19402 0.15136 0.98777 0.38949 1.7639 0.52916 0.77613 0.13968 1.5699 0.37368 1.7639 0.52002 0.19402 0.14632 0.90318 0.38393 1.5759 0.52803 0.6727 0.14409 1.4664 0.39356 1.7639 0.55435 0.29739 0.16081 1.8108 0.87318 3.3628 1.583 1.5522 0.70985 3.7872 1.7487 4.9668 2.3086 1.1795 0.55988 2.3172 1.018 2.5282 1.018 0.21104 0 0.43662 0.14566 0.50131 0.32369 0.0647 0.17803 1.7051 0.5076 3.6454 0.73239s5.2739 0.63966 7.4083 0.92197c8.4815 1.1218 11.783 1.5429 14.993 1.9125 2.8382 0.32676 5.2858 1.0426 5.9973 1.7539 0.097 0.097 0.97012 0.57327 1.9403 1.0583 0.97014 0.48506 1.8433 0.96456 1.9403 1.0655 0.097 0.10097 0.57327 0.37444 1.0583 0.6077 0.48509 0.23326 2.3107 1.2297 4.0568 2.2143 1.7462 0.98463 3.4528 1.8806 3.7923 1.9911 0.33954 0.1105 0.61735 0.32853 0.61735 0.48451 0 0.15597 0.47625 0.38819 1.0583 0.51604 0.58209 0.12785 1.0583 0.37859 1.0583 0.55721 0 0.17861 0.2268 0.32475 0.50397 0.32475 0.27718 0 0.71658 0.21261 0.97642 0.47247 0.25988 0.25985 0.70779 0.57549 0.99537 0.70141 0.28754 0.12591-0.0328 0.1347-0.71187 0.0196-0.6791-0.11517-1.3855-0.35142-1.5698-0.52501-0.18433-0.17359-0.58121-0.3166-0.88196-0.31779-0.30073-1e-3 -1.0015-0.23932-1.5573-0.52917s-1.1668-0.527-1.3578-0.527-0.92692-0.25136-1.6354-0.55859c-3.0094-1.3051-3.4629-1.476-4.5487-1.7145-0.62759-0.13784-1.2316-0.39716-1.3423-0.57626-0.11071-0.1791-0.44575-0.32565-0.74451-0.32565-0.29877 0-1.0434-0.21656-1.6549-0.48125-3.3187-1.4367-4.2153-1.6199-9.7547-1.9937-3.2014-0.21601-7.8052-0.54568-10.231-0.73258-2.4254-0.18691-5.0448-0.38537-5.8208-0.44101-0.77613-0.0556-3.1573-0.22847-5.2917-0.38407-2.1343-0.15559-4.3569-0.48969-4.939-0.74239-0.58208-0.25273-2.1398-0.94808-3.4615-1.5452-1.3218-0.59714-2.7903-1.1828-3.2631-1.3015-0.47291-0.1187-0.85989-0.35735-0.85989-0.53036 0-0.17299-0.24027-0.31453-0.53396-0.31453-0.29366 0-0.8096-0.15257-1.1465-0.33904s-1.4857-0.72038-2.5529-1.1865c-1.0671-0.46609-2.7339-1.2085-3.7042-1.6497-1.065-0.48437-2.952-0.91848-4.7625-1.0955-1.6492-0.1613-3.4748-0.39327-4.0569-0.51548-0.97557-0.20484-3.629-0.58463-7.5848-1.0856-0.87312-0.11058-1.7919-0.36714-2.0417-0.57013-0.24979-0.20298-1.0435-1.6315-1.7639-3.1745-5.2657-11.279-5.3634-11.416-9.3647-13.138-0.90191-0.38806-1.6413-0.82462-1.6432-0.97015-3e-3 -0.14552-0.17451-0.26458-0.38367-0.26458-0.2092 0-1.5355-0.55562-2.9475-1.2347-1.4119-0.67911-2.7488-1.2347-2.971-1.2347s-0.40397-0.15875-0.40397-0.35277c0-0.19403-0.1829-0.35277-0.40648-0.35277-0.22354 0-2.0258-1.649-4.005-3.6645-3.0118-3.067-3.8513-3.7248-5.1498-4.0349-0.8532-0.20372-2.2656-0.5419-3.1388-0.75153-2.6343-0.63246-3.0829-0.99464-3.338-2.6948-0.12682-0.84577-0.36184-1.6189-0.52229-1.718-0.16039-0.0991-0.39851-0.89289-0.52916-1.7639-0.1306-0.87098-0.37323-1.6675-0.53917-1.7701-0.16592-0.10255-0.41283-0.86032-0.5487-1.6839-0.13581-0.8236-0.36941-1.6562-0.51911-1.8502-0.14967-0.19403-0.38819-0.90839-0.53001-1.5875-0.14182-0.6791-0.37756-1.3935-0.5239-1.5875-0.14634-0.19403-0.37698-0.96763-0.51255-1.7191-0.1356-0.75149-0.38841-1.6246-0.56179-1.9403-0.17341-0.31568-0.59458-1.5661-0.93599-2.7789-0.34142-1.2127-0.79256-2.2049-1.0025-2.2049-0.51244 0-2.6368 2.2162-2.6368 2.7509 0 0.23329-0.11907 0.42476-0.26459 0.4255-0.14552 7.9e-4 -1.0035 0.91353-1.9066 2.0285-0.90311 1.1149-1.9718 2.424-2.3747 2.9091-0.40299 0.48507-0.85587 1.0407-1.0064 1.2347-2.5854 3.3322-4.4447 5.6155-5.7367 7.044-2.1565 2.3848-6.4479 6.5378-6.7553 6.5378-0.1374 0-0.85643 0.57544-1.5979 1.2788s-1.7449 1.5355-2.23 1.8493c-1.0389 0.67209-1.1479 0.75266-3.0408 2.2493-0.79936 0.63198-1.8064 1.3872-2.2377 1.6782-0.43141 0.29104-1.0723 0.76729-1.4241 1.0583-0.35187 0.29105-0.98687 0.7673-1.4111 1.0583-0.42426 0.29104-1.1138 0.80404-1.5322 1.14-1.2364 0.99261-1.4241 1.131-2.3483 1.7325-0.48506 0.31565-1.2788 0.90678-1.7639 1.3136-1.2831 1.0761-1.4624 1.2136-2.8223 2.1639-1.468 1.0258-1.5845 1.1164-3.175 2.4676-0.67911 0.5769-1.3425 1.0514-1.4741 1.0546-0.13165 3e-3 -0.4958 0.26204-0.80917 0.57544-0.72231 0.72231-2.2513 1.1061-6.889 1.7293-3.2385 0.43519-5.6494 0.7693-9.7015 1.3446-0.58209 0.0827-1.7727 0.41913-2.6458 0.74771-0.87312 0.32859-2.1034 0.77158-2.7339 0.98441-0.63058 0.21284-1.1465 0.51909-1.1465 0.68056 0 0.16148-0.27781 0.30047-0.61737 0.30888-1.1631 0.0288-3.4459 1.6109-3.3467 2.3194 0.26014 1.8591 0.59732 8.6908 0.44056 8.9265-0.0994 0.14931-0.73628 0.36788-1.4154 0.4857s-1.6316 0.3162-2.1167 0.44082c-0.48506 0.12463-1.4376 0.33287-2.1167 0.46278l-1.2347 0.2362-0.23088 3.9751c-0.12697 2.1863-0.38994 4.1685-0.58436 4.4045-0.19441 0.23624-0.4677 1.2233-0.60738 2.1934-0.13962 0.97015-0.40439 1.9531-0.58832 2.1843-0.87366 1.0984-0.37002 4.1283 1.1461 6.895 0.18465 0.33692 0.3411 0.81317 0.34766 1.0583 7e-3 0.24516 0.31872 1.0808 0.6936 1.8569 0.37489 0.7761 0.68699 1.6796 0.69361 2.0077 7e-3 0.32811 0.15272 0.68352 0.32472 0.78986 0.17206 0.10632 0.41738 0.7507 0.54518 1.4319 0.12779 0.68125 0.36835 1.2386 0.53451 1.2386 0.16618 0 0.41658 0.98581 0.55639 2.1907 0.13983 1.2049 0.38629 2.4352 0.54761 2.7339 0.16137 0.29885 0.44841 2.0515 0.63791 3.8947 0.18947 1.8433 0.45341 3.7087 0.58647 4.1452 0.47535 1.5592-0.7212 0.72009-4.5807-3.2123zm147.08-17.69c-0.69046-1.0581-1.0814-1.5878-1.7661-2.3935-0.20042-0.2358-0.75173-0.98435-1.2251-1.6635-1.3288-1.9061-1.7222-2.2492-4.9726-4.3373-4.2026-2.6998-4.553-3.066-6.4868-6.7858-0.50739-0.97597-1.5844-2.3253-2.3934-2.9985-2.3476-1.9538-6.4241-5.7695-6.4916-6.0762-0.0339-0.15447 0.019-0.11813 0.11759 0.0808 0.0986 0.19888 0.41296 0.3616 0.69847 0.3616 0.28548 0 1.2644 0.32899 2.1755 0.73105 0.91098 0.40209 2.212 0.96845 2.8911 1.2586 0.6791 0.29014 1.5522 0.66688 1.9403 0.83719 3.4102 1.4967 4.0611 1.7593 4.3609 1.7593 0.18849 0 0.40825 0.19657 0.48834 0.43682 0.11263 0.33796 0.34745 0.34486 1.0376 0.0304 0.49061-0.22353 2.3036-0.514 4.0291-0.64548l3.1369-0.23907 1.7912 1.708c3.3263 3.1718 6.1762 5.587 6.9572 5.8954 0.4272 0.16878 1.0942 0.43662 1.4822 0.59518 0.38804 0.15858 1.1024 0.39185 1.5875 0.51837 1.8076 0.47149 2.8223 1.0624 2.8223 1.6435 0 0.32925-0.15875 0.69673-0.35277 0.81666-0.19402 0.11992-0.35277 0.60553-0.35277 1.0792 0 0.95985-0.32573 1.0339-2.119 0.48151-1.3186-0.40613-3.95-1.1162-6.9892-1.886l-1.8763-0.47522-0.34965 0.91959c-0.54435 1.4318-0.44304 4.6471 0.20537 6.518 0.78735 2.2714 0.59754 3.2755-0.34586 1.8298zm22.058-3.5872c-0.29104-0.0991-1.0294-0.40404-1.6408-0.6777-0.61142-0.27366-1.2617-0.49755-1.4451-0.49755-0.54348 0-2.5585-1.0871-2.5585-1.3802 0-0.14864 0.55562-0.77587 1.2347-1.3938 0.6791-0.61796 1.2347-0.9861 1.2347-0.81809 0 0.48784 2.5666 1.1227 4.5389 1.1227h1.8112v3.8806l-1.3229-0.0278c-0.72761-0.0153-1.561-0.10892-1.8521-0.20801zm-374.04-1.4943c-0.91225-1.1043-0.78533-1.3126 1.0583-1.7374 0.92162-0.21237 2.7075-0.64312 3.9688-0.95718 4.1783-1.0405 6.1352-1.2404 10.054-1.0271 2.4425 0.13298 4.4688 0.0628 5.4682-0.18938 0.87312-0.22037 2.4606-0.61434 3.5277-0.87551 3.8801-0.94956 6.7027-2.1016 6.7027-2.7355 0-0.1499 0.14491-0.27255 0.32199-0.27255 0.17709 0 1.1656-0.55562 2.1968-1.2347 1.0312-0.6791 2.0769-1.2347 2.3239-1.2347 0.24696 0 0.44899-0.14154 0.44899-0.31453 0-0.173 0.43498-0.42371 0.96661-0.55714 0.53165-0.13343 1.0476-0.34917 1.1465-0.47942 0.27268-0.35894 5.4771-2.8821 5.9447-2.8821 0.22482 0 0.40875-0.15875 0.40875-0.35277s0.15738-0.35277 0.34973-0.35277c0.41212 0 2.502-1.5513 5.7356-4.2577 0.7276-0.60894 1.3229-1.3156 1.3229-1.5704s0.11907-0.51615 0.26459-0.58082c0.40166-0.17851 1.8521-2.3314 1.8521-2.749 0-0.20188 0.15875-0.36705 0.35279-0.36705 0.19402 0 0.35277-0.14775 0.35277-0.32833 0-0.80068 1.6777-2.739 2.8125-3.2496 4.408-1.9828 4.5577-2.0126 10.69-2.13 3.2459-0.0621 5.9015-0.0225 5.9013 0.088 0 0.54335-7.2488 7.7364-7.7952 7.7364-0.34676 0-0.72104 0.14654-0.83172 0.32565-0.1107 0.1791-0.71538 0.43397-1.3437 0.56637-2.3739 0.50022-3.7042 1.516-9.4861 7.244-3.2692 3.2388-5.9439 5.9804-5.9439 6.0928s-0.63302 0.88585-1.4067 1.7189c-0.7737 0.83306-1.4087 1.6084-1.4111 1.7231-0.0127 0.60539-3.1522 3.4168-4.0614 3.637-6.2984 1.525-8.5098 1.6482-13.582 0.75639-1.8433-0.32406-3.7484-0.59264-4.2333-0.59682-2.1121-0.0182-10.901 0.79684-12.347 1.1451-0.87312 0.21019-3.7306 0.46405-6.35 0.56412-4.5363 0.17332-4.7919 0.14646-5.3798-0.56534zm-29.215 0.17876c-0.0838-0.083-0.0986-1.207-0.033-2.4978 0.0911-1.793 0.25767-2.3978 0.70556-2.5627 0.32242-0.11872 0.66561-0.30679 0.76264-0.41797 0.097-0.11117 0.97014-0.59899 1.9403-1.084 0.97015-0.48506 1.8433-0.96147 1.9403-1.0586 0.097-0.0972 0.97015-0.54372 1.9403-0.99226 0.97015-0.44855 2.0395-0.96436 2.3765-1.1462s0.86855-0.33065 1.1814-0.33065c0.31284 0 1.0691-0.22234 1.6805-0.49408 1.9752-0.87791 4.5482-1.3492 8.8728-1.6251 3.7174-0.2372 6.4169-0.77621 8.8194-1.7609 1.5372-0.63008 2.2386-0.76425 5.3906-1.0312 2.523-0.21369 3.4533-0.44021 4.0568-0.98766 0.43072-0.39068 1.2197-0.98774 1.7532-1.3268l0.97014-0.61643-0.0134 1.8927c-0.0144 2.0301-0.67577 3.0874-4.0156 6.4198-2.2483 2.2432-3.1102 2.4642-10.258 2.6308-3.4925 0.0814-6.5088 0.27588-6.7027 0.43219-0.19403 0.15631-0.973 0.40011-1.7311 0.54179s-1.7899 0.47241-2.2931 0.73496c-0.50311 0.26254-1.1832 0.47831-1.5113 0.4795-0.32809 1e-3 -0.69467 0.16093-0.81458 0.35497-0.12304 0.19908-1.838 0.35277-3.9362 0.35277-3.565 0-3.8076 0.0493-5.8883 1.1964-1.1935 0.65802-2.7255 1.4914-3.4044 1.8521-0.67895 0.36063-1.3248 0.77711-1.4352 0.92554-0.11042 0.14844-0.2693 0.20197-0.35306 0.11895zm-129.27-2.4108c-3.4216-0.65436-3.3515-0.57113-3.3515-3.9677 0-2.2953 0.11313-3.0062 0.47844-3.0062 0.59492 0 3.4568 2.1506 5.3647 4.0312l1.4334 1.413-1.0046 0.98201c-0.55253 0.54009-1.0388 0.96014-1.0806 0.93342-0.0418-0.0267-0.8698-0.20037-1.8399-0.3859zm-20.285-2.3669c0-0.3766-0.14076-0.77173-0.3128-0.87804-0.17203-0.10632-0.41031-0.71319-0.52951-1.3486-0.14267-0.76049-0.93458-1.8911-2.3176-3.3089-1.1555-1.1845-2.1475-2.3425-2.2045-2.5734-0.11472-0.46458 1.8831-1.2636 4.0931-1.6369 1.1834-0.19994 1.9359-0.75097 4.3643-3.1959 1.6139-1.6248 2.9935-2.9541 3.066-2.9541s0.79309 0.61667 1.6014 1.3704c0.80828 0.75369 2.3263 1.984 3.3734 2.7339 1.952 1.3982 2.3199 2.1793 1.3898 2.9512-0.29104 0.24154-0.52917 0.62672-0.52917 0.85593 0 0.52281-2.1889 2.6718-2.7215 2.6718-0.21713 0-0.4477 0.12223-0.51237 0.27162-0.0647 0.14939-0.9907 0.8609-2.0579 1.5811-3.7613 2.5384-5.1165 3.5322-5.2329 3.8367-0.24058 0.6296-1.4699 0.31432-1.4699-0.37698zm280.67-2.4299c-0.0994-0.16082-1.1521-0.95901-2.3393-1.7738-1.1872-0.81476-2.3456-1.6386-2.5741-1.8308-1.6708-1.4052-2.2979-1.8797-3.1496-2.3838-0.53359-0.31578-0.97015-0.69866-0.97015-0.85088 0-0.74289-1.1193-0.0449-3.5277 2.1999l-2.6458 2.466-7.3268-0.18016-0.78697-2.4962c-0.67204-2.1316-0.74107-2.8273-0.47263-4.7625 0.17291-1.2464 0.48096-2.561 0.68456-2.9213 0.20357-0.36026 0.46138-2.3843 0.57288-4.4979 0.11149-2.1136 0.33985-3.8428 0.50744-3.8428s0.58036 0.15319 0.91728 0.34042c1.2855 0.71434 3.9476 1.7762 4.4529 1.7762 0.29022 0 0.61727 0.14494 0.72676 0.32208 0.10948 0.17714 0.83238 0.42907 1.6065 0.55986 0.77409 0.13078 1.4859 0.36472 1.5818 0.51988 0.0959 0.15515 0.75126 0.39031 1.4564 0.5226 1.6607 0.31155 2.6063 0.91649 2.6063 1.6674 0 0.32994 0.15875 0.698 0.3528 0.81791 0.19402 0.11992 0.35277 0.59219 0.35277 1.0495 0 0.56001 0.48948 1.2124 1.4993 1.9981 0.8246 0.64167 1.6262 1.3694 1.7814 1.6171 0.15515 0.24777 0.44159 0.45048 0.63648 0.45048 0.19492 0 0.86172 0.47551 1.4818 1.0567 0.62008 0.58118 1.2436 1.0574 1.3856 1.0583 0.35629 2e-3 2.5496 2.175 2.8506 2.8239 0.13505 0.29104 0.71054 1.3229 1.2789 2.2931 0.56835 0.97015 1.0439 1.883 1.0568 2.0285 0.0322 0.36301-3.7711 0.33653-3.9963-0.0278zm-242.3-1.3173c-0.14021-0.14021-1.489-0.47508-2.9975-0.74414-1.5084-0.26905-3.4568-0.63381-4.3299-0.81055-0.87313-0.17674-3.0242-0.33081-4.7802-0.34237-3.0734-0.0202-4.0394-0.31642-4.0394-1.2387 0-0.20406 0.70993-0.74763 1.5776-1.208s1.6703-1.129 1.7836-1.4859c0.15271-0.48117 0.4518-0.60595 1.1564-0.48249 4.9922 0.87466 19.24 1.43 23.175 0.90329 1.5522-0.20775 4.6101-0.44083 6.7953-0.51793 3.9497-0.13938 3.9664-0.13661 2.8223 0.47609-0.63291 0.33896-1.6667 0.72946-2.2972 0.86776-0.63059 0.1383-1.1465 0.39759-1.1465 0.57621 0 0.17861-0.28575 0.32475-0.635 0.32475s-0.78582 0.14655-0.97015 0.32565c-0.18433 0.17911-1.1289 0.49249-2.099 0.69638-2.5553 0.53705-5.5621 1.2909-6.1735 1.5479-1.6547 0.69524-7.4388 1.5155-7.842 1.1121zm100.97-1.4771c-0.41791-0.53359-1.2629-1.5276-1.8777-2.2089-2.3284-2.5801-2.359-2.4497 0.52973-2.2532 1.4222 0.0967 3.1811 0.35211 3.9087 0.56746 1.1331 0.33538 1.3229 0.53779 1.3229 1.4109 0 1.0234-1.931 3.4539-2.744 3.4539-0.20885 0-0.72165-0.43656-1.1396-0.97014zm297.97-1.9065c0.3615-0.64915 0.73666-1.2596 0.83365-1.3567 0.097-0.097 0.53126-0.89077 0.96499-1.7639 1.0593-2.1324 1.5648-5.4412 1.8327-11.994 0.17187-4.2048 0.37592-5.8145 0.88307-6.9673 0.36277-0.82463 0.79425-1.4993 0.95885-1.4993 0.16462 0 0.29927-0.2113 0.29927-0.46955 0-0.74729 1.3643-1.2439 4.5688-1.663 2.7215-0.35597 3.1358-0.51826 4.7524-1.8627 0.97415-0.81003 2.0138-1.7151 2.3103-2.0114 0.71411-0.7134 3.1851-4.7612 3.1851-5.2178 0-0.19712 0.12742-0.41132 0.28318-0.47599 0.15574-0.0647 0.90279-1.1494 1.66-2.4106 0.75732-1.2612 1.5824-2.5028 1.8335-2.7593 0.25114-0.25639 0.45659-0.64532 0.45659-0.86432 0-0.26283 0.11875-0.2794 0.34936-0.0488 0.23063 0.23064 0.23063 0.76335 0 1.5675-0.19217 0.66998-0.34936 1.8013-0.34936 2.514s-0.12181 1.3488-0.27072 1.4134c-0.14891 0.0647-0.7416 1.3082-1.3171 2.7633-0.61971 1.5669-1.4622 3.0054-2.0662 3.5277-0.56084 0.48506-2.0106 1.8344-3.2218 2.9985-1.9498 1.8742-2.296 2.4197-3.0229 4.7625-0.45156 1.4552-0.93075 2.8046-1.0649 2.9985-0.1341 0.19403-0.35415 0.86871-0.48898 1.4993-0.13483 0.63058-0.3741 1.1465-0.53165 1.1465-0.15759 0-0.38365 0.38695-0.50234 0.85989s-0.69152 1.8877-1.273 3.1438c-0.58142 1.2562-1.0571 2.394-1.0571 2.5285s-0.47625 0.95022-1.0583 1.8127c-0.58209 0.86249-1.0583 1.719-1.0583 1.9032 0 0.18431-0.12453 0.3351-0.27672 0.3351s-0.58002 0.51348-0.95076 1.1411c-0.71363 1.2081-2.6074 3.0922-3.1081 3.0922-0.16372 0-0.80303 0.37695-1.4207 0.83767-0.61764 0.46072-1.4982 1.0315-1.9566 1.2685l-0.83363 0.4308zm49.035-4.0034c-0.11186-0.29157-0.8261-1.3631-1.5871-2.3812-0.76105-1.0181-1.4986-2.4068-1.6389-3.0858-0.14042-0.67911-0.37735-1.3935-0.52658-1.5875-0.14922-0.19403-0.38896-0.9084-0.53276-1.5875-0.14378-0.67911-0.41651-1.3336-0.60611-1.4543-0.18957-0.12078-0.41955-1.6289-0.51107-3.3515l-0.16637-3.1319 0.76642 1.1465c0.42153 0.63058 0.90956 1.1465 1.0846 1.1465 0.17497 0 0.31814 0.15737 0.31814 0.34972 0 0.63622 2.5157 3.6719 4.9808 6.01 1.3352 1.2665 2.4252 2.5365 2.4223 2.8223-0.013 1.2807-1.0633 3.3459-2.2582 4.4405-1.5003 1.3744-1.476 1.3652-1.745 0.66408zm-33.187-1.9166-0.99219-1.0356 1.0434-1.6984c0.57385-0.93413 1.1591-2.1747 1.3005-2.7567 0.14145-0.58208 0.5088-1.6371 0.81635-2.3444 0.46463-1.0685 0.78274-1.3218 1.8802-1.4973 1.5996-0.25578 1.7508-0.59804 1.7508-3.9632 0-2.5206 0.0602-2.7136 1.4222-4.5572 0.78227-1.0589 1.576-1.9252 1.7639-1.9252 0.42918 0 0.41912 3.5891-0.0151 5.4681-0.17944 0.7761-0.56841 2.443-0.8644 3.7042-0.60603 2.5822-0.83452 3.7095-1.2155 5.9973-0.14542 0.87312-0.85209 2.5003-1.5704 3.6161-1.2557 1.9503-1.3642 2.0285-2.8168 2.0285-1.2106 0-1.7077-0.20568-2.5028-1.0356zm-461.8-5.3163c-0.38806-0.16876-1.4596-0.40587-2.3812-0.52689-0.92162-0.12104-1.6757-0.39476-1.6757-0.60825 0-0.21351 0.57955-1.3789 1.2879-2.5898l1.2879-2.2016 1.4023 0.49477c1.9138 0.67522 1.9979 0.66263 5.022-0.75327 1.4661-0.68643 2.8586-1.134 3.0946-0.99448 0.84283 0.49834 2.0042 1.7204 2.0102 2.1152 4e-3 0.22099-0.98909 0.6712-2.2054 1.0004-1.8234 0.49355-2.5494 0.93387-4.1368 2.5086-1.9366 1.9212-2.4088 2.1194-3.7058 1.5554zm505.54 2e-3c-0.11991-0.19403-0.66209-0.35277-1.2048-0.35277-1.8267 0-6.4048-4.3053-11.848-11.142-0.19402-0.24371-1.3846-0.99351-2.6458-1.6663-2.2447-1.1973-2.2982-1.2593-2.538-2.9385-0.13465-0.94348-0.34454-2.1917-0.46641-2.7739-0.20881-0.99753-0.13626-1.0846 1.2628-1.5159 1.5076-0.46479 1.891-0.31718 3.5026 1.3487 0.59989 0.62013 3.3311 2.5394 5.2948 3.7206 1.2612 0.75861 2.3724 1.4617 2.4694 1.5623 0.097 0.10063 0.79272 0.49895 1.546 0.88513 2.1954 1.1256 3.2782 2.4115 3.5486 4.2148 0.13219 0.88149 0.37132 1.6027 0.53142 1.6027 0.16012 0 0.39825 0.71438 0.52916 1.5875 0.13095 0.87313 0.3523 1.5875 0.49189 1.5875 0.13962 0 0.43945 0.43656 0.66633 0.97015 0.22685 0.53358 0.65087 1.4861 0.94223 2.1167l0.5298 1.1465h-1.1969c-0.65823 0-1.295-0.15875-1.4149-0.35277zm-355.41-1.9467c-0.48474-0.28136-1.1591-0.61195-1.4987-0.7347-0.33954-0.12274-0.61735-0.34737-0.61735-0.49918 0-0.15182-0.61389-0.596-1.3642-0.98709-1.2082-0.62976-3.4687-2.672-5.4951-4.9646-0.67918-0.7684-0.67918-0.77367 0-0.54853 0.61362 0.20339 5.0311 2.2262 6.5828 3.0144 0.33297 0.16912 1.5012 0.41277 2.596 0.54144l1.9907 0.23396-0.23485 1.799c-0.30229 2.3155-0.77478 2.8329-1.9592 2.1454zm191.29-3.1988-2.2048-2.2507 0.0236-3.2692 0.0235-3.2692 0.7901 2.4694c0.73525 2.2981 0.89887 2.5226 2.3575 3.2351 3.1792 1.5527 4.0815 1.9446 6.1032 2.6509 1.1364 0.39695 2.4682 0.93027 2.9596 1.1852l0.89328 0.46344-1.372 0.22087c-0.75462 0.12147-1.6477 0.37094-1.9846 0.55435-0.33694 0.18343-1.6863 0.31721-2.9985 0.29729l-2.3861-0.0362-2.2049-2.2507zm-305.78 1.3476c0.19403-0.14255 0.815-1.1706 1.3799-2.2844 0.56491-1.1139 1.4229-2.2846 1.9067-2.6015 0.82082-0.53782 0.86413-0.5361 0.64855 0.0256-0.12704 0.33108-0.23098 1.6208-0.23098 2.8662v2.2642l-2.0285-5e-3c-1.1157-3e-3 -1.8697-0.12204-1.6757-0.26459zm-22.002-3.574c-0.86431-0.54755 1.4819-3.5348 4.2542-5.4163 2.3098-1.5677 2.6146-1.6757 4.7284-1.6757 1.8144 0 2.2595 0.1087 2.2595 0.55177 0 1.1362-1.7588 4.3381-3.0604 5.5719-1.3459 1.2756-1.3569 1.2787-4.5241 1.2764-1.7462-1e-3 -3.392-0.13982-3.6573-0.30785zm157.33-0.78737c-1.73-0.98801-1.8169-1.0995-1.2137-1.5565 0.35734-0.27078 0.8958-0.49737 1.1966-0.50356 0.30075-6e-3 0.69762-0.14428 0.88193-0.30691 0.62281-0.54949 4.5556-1.7441 6.5088-1.977 1.0672-0.12725 2.2578-0.29302 2.6458-0.36838 0.38806-0.0754 1.7085-0.29514 2.9342-0.48842 2.5102-0.39581 2.5212-0.40275 5.7645-3.6277 1.5928-1.5838 2.7424-2.4256 3.5338-2.5878 3.0303-0.62108 3.7642-0.97197 3.9812-1.9038 0.11811-0.50718 0.38188-1.3456 0.58613-1.8632 0.34439-0.87262 0.45255-0.91379 1.4872-0.56618 0.61368 0.20619 1.2745 0.49228 1.4686 0.63574 1.3195 0.97568 3.3642 0.63008 7.4618-1.2612 1.8141-0.83735 2.4256-0.67127 2.871 0.77981 0.21825 0.71112 0.31639 1.4231 0.21806 1.5822-0.15049 0.2435-1.8393 1.3213-5.6118 3.5814-0.38806 0.23248-0.78494 0.51046-0.88194 0.61772s-0.81139 0.57512-1.5875 1.0397c-0.7761 0.46458-1.5051 0.98065-1.62 1.1468-0.24598 0.35573-3.4258 0.87366-8.0071 1.3042-1.8024 0.16937-3.4692 0.46299-3.7042 0.65246-0.23486 0.18948-1.1009 0.45566-1.9245 0.59147-0.82359 0.13584-1.5785 0.37809-1.6775 0.53835-0.099 0.16027-0.81343 0.39839-1.5875 0.52917-0.77409 0.13078-1.4857 0.36438-1.5813 0.51916-0.0957 0.15476-0.88652 0.38825-1.7575 0.51885-0.87098 0.13062-1.676 0.38706-1.7891 0.56989-0.113 0.18283-0.53451 0.33239-0.93673 0.33239-0.62952 0-2.9324 1.1614-3.4605 1.7453-0.097 0.10726-0.66212 0.46394-1.2558 0.79263-1.0566 0.58505-1.1187 0.57521-2.9427-0.46659zm-16.968-6.8339v-1.5875h3.0239c2.4325 0 2.9326 0.0862 2.5576 0.44098-0.5094 0.48186-4.8898 2.7345-5.3168 2.7342-0.14552-7e-5 -0.26458-0.7145-0.26458-1.5876zm300.96-4.6808-1.5388-1.3266 0.51964-1.2437c0.75647-1.8105 1.5436-2.4497 3.0242-2.4559 0.71374-3e-3 1.4591-0.12203 1.6563-0.26459 0.40974-0.2962 2.64-4.8247 2.64-5.3605 0-0.50733 4.5328-4.9715 4.7278-4.6561 0.40526 0.65569-1.6871 5.5766-3.23 7.5964-0.90784 1.1885-1.775 2.2138-1.9271 2.2785-0.15203 0.0647-0.27644 1.3744-0.27644 2.9104 0 2.5172-0.0667 2.7929-0.67617 2.7929-0.37185 0-0.72903 0.13599-0.79375 0.30221-0.0647 0.16621-0.67321 0.40373-1.3523 0.52784-1.0796 0.19728-1.4281 0.0589-2.7736-1.101zm-225.29-1.144c-0.12915-0.87101-0.18426-2.4553-0.12248-3.5206 0.11195-1.9303 0.11795-1.9395 1.788-2.7305 0.98324-0.46574 1.7006-1.0503 1.7359-1.4145 0.0331-0.34142 0.0948-1.5733 0.13703-2.7374 0.0423-1.1641 0.28623-3.0229 0.54219-4.1307l0.46535-2.014 2.2961-0.10264c2.2567-0.10089 2.3017-0.12229 2.6236-1.2492 0.18016-0.63058 0.46337-1.1465 0.62931-1.1465 0.16598 0 0.30176-0.23703 0.30176-0.52673 0-0.70461 1.1605-3.3539 1.4691-3.3539 0.13441 0 0.45416-0.20438 0.71054-0.45418 0.25638-0.24979 1.1012-0.83672 1.8773-1.3043 0.77613-0.46757 1.5181-1.0071 1.6489-1.199 0.22156-0.32506 3.0295 0.66527 3.4663 1.2227 0.097 0.12372 1.2876 0.30819 2.6458 0.40992s2.9456 0.44045 3.5277 0.75274c0.58208 0.31228 1.2568 0.56875 1.4993 0.56994 0.24252 1e-3 0.44096 0.16092 0.44096 0.35496s0.17708 0.35277 0.39354 0.35277c0.21643 0 1.4467 0.69488 2.7339 1.5442 1.7958 1.1848 2.8125 1.6012 4.3691 1.7893 1.1977 0.14473 2.0285 0.41733 2.0285 0.66559 0 0.50707-3.3446 3.7621-3.8656 3.7621-0.20228 0-0.3678 0.14154-0.3678 0.31454 0 0.17299-0.40122 0.41523-0.89162 0.53832-1.8181 0.4563-4.6643 2.0288-5.0329 2.7805-0.20936 0.42693-0.85476 1.8325-1.4343 3.1237l-1.0536 2.3473-3.1139 0.25633c-2.6845 0.22098-3.3322 0.4081-4.6966 1.3568-0.87053 0.60529-1.7947 1.2989-2.0537 1.5415-0.25897 0.24254-0.57954 0.44098-0.71234 0.44098-0.33567 0-1.0091-1.696-1.261-3.1758-0.20354-1.196-0.097-1.3415 3.3171-4.5331 1.9401-1.8136 3.5274-3.4589 3.5274-3.6563 0-0.21493-0.38894-0.26162-0.97015-0.11647-0.53358 0.13327-2.0814 0.43355-3.4396 0.66731-2.3794 0.40952-2.5724 0.52126-5.2917 3.062-3.4205 3.1962-6.2894 6.3847-7.9375 8.8217-0.29105 0.43043-0.79156 1.1182-1.1123 1.5284-0.57076 0.73004-0.58806 0.71234-0.81788-0.83785zm-191.57 0.62071c-0.38883-0.23145-2.685-0.50377-5.1152-0.60664l-4.4098-0.18664 0.0983-1.2347c0.25873-3.2504 0.46551-3.8806 1.2733-3.8806 0.42921 0 0.9312-0.13775 1.1155-0.30612 0.18432-0.16837 0.84619-0.40156 1.4708-0.51816 1.0801-0.20167 1.1565-0.14247 1.5617 1.21 0.44386 1.4815 1.8022 2.4431 4.1928 2.9681 0.57155 0.12553 1.1297 0.37478 1.2404 0.55388 0.11069 0.17909 0.58875 0.32562 1.0624 0.32562 1.0228 0 1.1231 0.71186 0.21598 1.5328-0.7535 0.68191-1.7149 0.7325-2.7062 0.1424zm-15.51-0.95033c-0.12648-0.20467-0.5253-0.37211-0.88627-0.37211-0.58489 0-0.61854-0.14396-0.3094-1.3229 0.1908-0.7276 0.57316-1.8195 0.84971-2.4265 0.48151-1.0569 0.57388-1.096 2.1823-0.92319 0.92371 0.0992 1.7435 0.23651 1.8217 0.30507 0.0782 0.0685-0.0806 1.1984-0.35277 2.5107l-0.49495 2.3861-1.2901 0.10753c-0.70958 0.0592-1.3936-0.0599-1.5201-0.26458zm313.29-1.2402c-0.59079-0.45579-0.61968-0.68453-0.26459-2.0948 0.21926-0.87072 0.39865-2.2272 0.39865-3.0144 0-0.78721 0.1478-1.4313 0.32843-1.4313 0.18066 0 1.2502 0.86476 2.3768 1.9217l2.0483 1.9217-0.52472 1.5179c-0.5056 1.4627-0.58243 1.521-2.1122 1.6044-0.96785 0.0527-1.8464-0.11325-2.2507-0.42518zm-309.22-8.2698-1.5572-0.63156 1.028-0.9084c2.9205-2.5806 3.619-3.0901 5.8878-4.2934l2.4605-1.3051-0.15185 2.0993c-0.12649 1.7487-0.32536 2.2696-1.1907 3.1194-2.8133 2.7625-3.7293 3.034-6.4765 1.9198zm147.1 0.33978c-0.42598-0.26956-0.4354-0.53462-0.0593-1.6703 0.24587-0.74245 0.73824-1.7083 1.0942-2.1462 0.60399-0.74327 0.76665-0.77073 2.4406-0.41174 0.98639 0.21154 1.7934 0.42714 1.7934 0.47913 0 0.052-0.14562 0.55478-0.32361 1.1173s-0.41915 1.4593-0.53589 1.9929c-0.1988 0.90858-0.32938 0.9698-2.0576 0.96472-1.0149-3e-3 -2.0732-0.14958-2.3517-0.3258zm-2.4923-5.1202c0-0.38431 0.89823-2.1549 1.2019-2.3691 0.44251-0.31221 0.30321-5.4406-0.18866-6.945-0.27384-0.83773-0.27789-1.405-0.0138-1.9403 0.45513-0.92263 1.4886-3.3512 2.3885-5.6131 0.6078-1.5276 0.9689-1.8609 3.9436-3.6391 1.9678-1.1762 3.587-1.913 4.0569-1.8462 0.84598 0.12028 0.8541 0.2083 0.57978 6.2849-0.0742 1.6441 0.10725 2.8916 0.64127 4.408l0.7448 2.1149-1.0213 2.2066c-0.56174 1.2137-1.2249 2.2016-1.4737 2.1954-0.79931-0.0198-1.6646-0.90715-2.2493-2.3066-0.53708-1.2854-0.59793-1.3249-1.0621-0.69017-0.2708 0.37034-0.49236 0.82003-0.49236 0.99931s-0.51594 1.423-1.1465 2.7638c-1.0746 2.2849-1.2811 2.5036-3.2912 3.4872-2.1115 1.0332-2.618 1.2053-2.618 0.88956zm94.898-11.361c-0.29105-0.0969-1.3229-0.48978-2.2931-0.873-1.8383-0.72617-2.2019-0.87437-4.6773-1.9064-1.2598-0.52522-1.722-0.56052-2.8631-0.21863-0.74845 0.22425-1.5805 0.40648-1.8491 0.40498-0.93305-5e-3 -1.8532-3.1848-1.063-3.6732 0.16896-0.10444 0.40725-0.69004 0.52948-1.3014 0.12229-0.61132 0.81444-1.7656 1.5381-2.565l1.3158-1.4535-1.8453-0.10663c-1.5363-0.08877-1.8453-0.21822-1.8453-0.77293 0-0.36647 0.13824-0.75173 0.30723-0.85616 0.16896-0.10443 0.40373-0.67254 0.52173-1.2625 0.11798-0.58994 0.39122-1.2679 0.60717-1.5066 0.81629-0.90234 3.5258-5.4748 4.7514-8.0187 2.5589-5.3105 2.8226-5.7671 3.6396-6.2981l0.8314-0.5406-0.12583 3.2562c-0.0724 1.8733-0.29292 3.3629-0.51927 3.5076-0.21638 0.13832-0.50488 0.60867-0.64114 1.0452-0.13624 0.43656-0.39577 0.79375-0.57671 0.79375-0.18095 0-0.32901 0.16746-0.32901 0.37214 0 0.20467-0.33441 1.1062-0.74314 2.0035-0.66844 1.4673-0.73014 2.1343-0.61381 6.6334 0.0771 2.9829 0.28946 5.2004 0.52602 5.493 0.21818 0.27001 0.507 1.0068 0.64183 1.6375 0.23005 1.0759 0.33782 1.1465 1.7491 1.1465 1.3831 0 1.558 0.10632 2.1768 1.3229 0.3701 0.72761 0.76473 1.4023 0.87694 1.4993s0.45722 0.69233 0.76671 1.3229c0.56679 1.1549 0.4233 1.3201-0.79433 0.91462zm-31.152-3.7928-0.91678-0.84965 1.1832-0.56145c0.65074-0.30879 1.3389-0.56145 1.5293-0.56145 0.19039 0 0.98581-0.63965 1.7676-1.4215 1.2944-1.2944 1.6293-1.4409 3.7457-1.6385l2.3242-0.21704v3.6298h-2.6124c-2.469 0-2.6937 0.0678-4.0905 1.2347-0.81283 0.67911-1.5984 1.2347-1.7458 1.2347-0.14735 0-0.68045-0.38235-1.1847-0.84965zm-2.4505-9.8187c-2.1942-2.1168-2.6564-2.9737-2.9038-5.3829-0.21405-2.0842-0.19683-2.1386 1.1233-3.5438 0.73737-0.78497 2.9062-2.3652 4.8196-3.5116 3.4954-2.0943 4.0989-2.619 7.0755-6.1526 1.2781-1.5173 1.6166-2.1904 1.6166-3.2139 0-0.71213 0.10129-2.0338 0.22508-2.9369 0.19138-1.3962 0.36317-1.675 1.1466-1.8611 0.50678-0.12035 1.3183-0.41603 1.8034-0.65707 0.48506-0.24104 1.2788-0.60767 1.7639-0.81473 0.48506-0.20707 1.6239-0.70112 2.5307-1.0979 1.6195-0.70858 3.5788-0.69747 4.0238 0.02286 0.10444 0.16897 0.47856 0.30721 0.8314 0.30721 0.35285 0 0.83352 0.23131 1.0681 0.51401 0.55917 0.67374 0.15679 1.2365-3.7857 5.2951-2.5467 2.6217-3.2713 3.6245-4.0862 5.656-0.54488 1.3582-1.2163 2.9908-1.492 3.628-0.2757 0.63717-0.50663 1.3515-0.51322 1.5875-7e-3 0.23595-0.29675 1.0307-0.64484 1.7661-0.64257 1.3576-0.98563 1.5836-5.3827 3.547-1.8474 0.82486-2.4879 1.3936-3.8383 3.4086-0.29104 0.43429-0.68792 0.96859-0.88193 1.1873-0.19405 0.21876-0.81577 1.0794-1.3816 1.9125-0.56586 0.83312-1.1483 1.5886-1.2944 1.6789-0.14608 0.09027-0.96642-0.512-1.823-1.3384z" fill="#cfd8dc" stroke-width=".35277"/>
 </g>
</svg>
