<svg version="1.1" viewBox="0 0 995.43 586.43" xmlns="http://www.w3.org/2000/svg">
 <path d="m6.0504e-4 586.26c0.13507-0.13507 9.0179-1.8321 19.74-3.7712 38.196-6.908 70.73-13.321 116.99-23.061 11.825-2.4896 22.4-4.7483 23.5-5.0194 1.1-0.27102 8.3-1.8445 16-3.4967s20.525-4.5495 28.5-6.4386 22.234-5.2661 31.688-7.5045c25.901-6.133 57.73-14.455 92.812-24.268 63.1-17.65 120.87-37.632 159.83-55.28 8.0855-3.6631 15.214-6.3432 15.841-5.9559 0.67294 0.4159 0.86604 0.26174 0.4716-0.37648-0.40367-0.65316 2.997-2.9457 8.5955-5.7944 18.203-9.2624 38.334-23.172 48.182-33.29 2.705-2.7794 5.362-4.7792 5.9045-4.444 0.54851 0.339 0.67191 0.10085 0.27801-0.53651-0.38959-0.63035 0.73578-3.245 2.5008-5.8104 18.544-26.953 2.4004-55.649-45.052-80.084-6.902-3.554-12.442-6.8522-12.311-7.3292 0.13091-0.47702-0.32169-0.65254-1.0058-0.39003-0.68408 0.26251-5.0662-1.1409-9.738-3.1186-4.6718-1.9778-12.769-5.1982-17.994-7.1566-5.225-1.9584-10.85-4.1188-12.5-4.8011-3.3764-1.3961-32.279-10.804-46-14.973-29.099-8.8419-93.84-25.391-152-38.855-46.398-10.741-54.139-12.552-69.004-16.144-36.004-8.7011-70.506-19.622-89.891-28.453-3.8235-1.7418-4.6073-2.56-4.62-4.8227-0.0185-3.2844-0.78822-4.559-3.669-6.0753-3.0415-1.6009-6.8346-1.4343-8.3286 0.36579-1.2668 1.5264-2.058 1.1306-9.4871-4.7462-0.55-0.43508-2.2986-1.7669-3.8858-2.9596-4.9548-3.7232-8.6142-10.548-8.6142-16.065 0-2.6748 0.40803-4.6111 0.90674-4.3028s0.68646-0.28195 0.41723-1.3115c-0.71095-2.7187 8.7381-11.935 16.684-16.274 21.086-11.512 48.679-18.71 114.49-29.865 67.951-11.517 109.92-19.358 137.33-25.654 8.4289-1.9367 15.511-3.3353 15.739-3.1079 1.474 1.4741-66.575 15.112-126.06 25.266-55.058 9.3969-71.829 12.592-89.96 17.136-14.882 3.7303-28.666 8.1512-37.397 11.994-2.9467 1.297-5.8717 2.0645-6.5 1.7054-0.62834-0.35907-0.80817-0.28394-0.39962 0.16696 0.96948 1.07-11.259 8.5926-12.666 7.7922-0.592-0.33662-0.75832-0.25935-0.36961 0.17172 0.38872 0.43106-0.39694 2.2308-1.7459 3.9993-6.0223 7.8956-5.3503 14.491 2.2385 21.973 4.0987 4.0408 16.585 12.077 21.551 13.87 0.9625 0.34757 1.75 1.5461 1.75 2.6633 0 2.0477 2.3954 2.8186 3.451 1.1107 0.31296-0.50638 4.952 0.78103 10.309 2.8609 20.383 7.914 60.197 19.582 101.24 29.67 12.375 3.0416 24.3 5.8921 26.5 6.3346 2.2 0.44242 15.25 3.3628 29 6.4897 73.996 16.828 95.427 22.01 127 30.708 28.499 7.8514 32.472 9.0951 31.917 9.992-0.28667 0.46384 0.17088 0.57776 1.0168 0.25316 4.7698-1.8303 106.81 36.785 104.99 39.731-0.29199 0.47245 0.1374 0.60255 0.9542 0.28912 1.6894-0.64827 21.462 9.4065 30.863 15.695 13.04 8.7218 23.532 21.051 27.725 32.58 1.8018 4.9536 2.1741 7.7345 1.8742 14-0.56296 11.759-4.2258 18.729-16.477 31.354-5.5364 5.7055-10.3 9.8201-11.041 9.536-0.71627-0.27485-1.1952 7e-3 -1.0643 0.62742 0.38882 1.8414-16.3 14.065-31.905 23.369-15.363 9.1594-40.313 21.55-67.357 33.45-5.225 2.2991-14 5.9498-19.5 8.1126-5.5 2.1628-10.9 4.3655-12 4.8947-8.5256 4.1019-57.751 21.167-85 29.466-68.245 20.787-124.71 34.415-257.5 62.146-6.1363 1.2815-16.635 1.6064-57.74 1.7872-27.632 0.12146-50.129 0.11033-49.994-0.0247zm177.73-23.4c0-0.55-0.70351-1-1.5634-1-1.1523 0-1.481-0.82527-1.25-3.1389 0.2403-2.4071 1.1257-3.5728 3.7978-5 2.908-1.5532 3.1148-1.8611 1.25-1.8611-1.2289 0-2.2344 0.45-2.2344 1s-0.9 1-2 1c-1.6491 0-2 0.66667-2 3.8 0 3.5579 1.3637 6.2 3.2 6.2 0.44 0 0.8-0.45 0.8-1zm10-0.91821c0-0.50502 0.27314-1.63 0.60699-2.5 0.33384-0.86999 0.10884-1.5818-0.5-1.5818-0.60885 0-1.107 0.8625-1.107 1.9167 0 1.0542-0.5625 2.1436-1.25 2.421-0.74674 0.30132-0.54544 0.53617 0.5 0.58333 0.9625 0.0434 1.75-0.33425 1.75-0.83926zm-2.5-8.0818c-0.33992-0.55-1.154-0.99311-1.809-0.98469-0.71561 9e-3 -0.59227 0.40223 0.30902 0.98469 1.9211 1.2415 2.2673 1.2415 1.5 0zm-18.166 32.333c0.11025-0.11026 10.993-2.907 24.183-6.2149 26.731-6.7037 85.45-22.333 93.983-25.015 1.65-0.51869 10.2-3.0461 19-5.6165 78.911-23.049 145-46.201 194-67.957 9.2754-4.1186 38.199-18.852 45.963-23.413 4.5826-2.6921 7.3001-3.7528 7.95-3.1029 0.54307 0.54307 1.4599 0.98052 2.0374 0.9721 0.5775-8e-3 0.37719-0.44066-0.44513-0.96052-1.2824-0.81073-1.2113-1.1584 0.5-2.444 1.0973-0.82437 2.8951-1.2627 3.9951-0.97398 1.4372 0.37718 1.6234 0.2634 0.66147-0.40436-1.0209-0.70876-0.49139-1.4528 2.2318-3.1358 1.9637-1.2136 4.0396-1.9165 4.6133-1.5619s0.91936 0.10492 0.76824-0.55471c-0.15113-0.65963 0.35036-1.4265 1.1144-1.7041 0.95581-0.34727 1.1398-0.0743 0.58967 0.875-0.47204 0.81459-0.42665 1.0384 0.1108 0.5464 0.50068-0.45834 0.91033-1.1756 0.91033-1.5939s4.5-4.1506 10-8.2941c24.588-18.523 38.605-37.391 40.162-54.058 1.594-17.07-13.07-37.684-37.5-52.716-4.0216-2.4745-5.0038-3.5157-3.9966-4.2368 0.99996-0.71597 0.89582-0.8147-0.41466-0.39314-1.0453 0.33624-7.2868-2.1987-15.5-6.2951-15.439-7.7006-30.616-14.41-43.25-19.119-45.241-16.865-128.21-40.538-194.7-55.554-9.3111-2.1027-11.862-3.0102-10.769-3.8306 1.9059-1.4296 0.44917-3.8056-1.5558-2.5376-1.2021 0.76022-1.1052 0.9464 0.52639 1.0106 1.7969 0.0707 1.764 0.17334-0.32454 1.0107-3.9177 1.5707-87.652-17.198-132.57-29.716-28.592-7.9676-62.816-19.974-60.686-21.29 1.3252-0.81905-2.828-3.3225-5.002-3.0151-3.7371 0.52844-4.3618-0.12137-1.9202-1.9973 2.2484-1.7274 2.3184-1.9829 0.71276-2.599-1.1068-0.42472-2.5425 6e-3 -3.7936 1.1384-1.949 1.7638-2.129 1.7597-5.6661-0.12872-5.2821-2.8201-9.3545-6.4667-8.5947-7.696 0.36959-0.59801 0.18699-0.77276-0.41725-0.39932-0.59094 0.36522-1.9794-0.48638-3.0854-1.8924-7.2174-9.1755-0.28336-19.04 20.375-28.987 20.383-9.8143 43.329-15.419 110.48-26.986 14.575-2.5108 32.575-5.699 40-7.0848 7.425-1.3858 18.45-3.4252 24.5-4.532 67.835-12.41 112.53-23.922 134.12-34.55 11.663-5.7391 15.993-9.3093 17.535-14.458 1.0451-3.4882 0.96155-4.4861-0.62172-7.4261-4.9344-9.1626-24.379-17.224-57.658-23.904-13.356-2.6808-51.65-8.5275-55.884-8.5323-1.9869-0.0022-2.732-0.7271-3.6008-3.5028-0.60252-1.925-0.74295-3.5-0.31208-3.5s1.069 0.9 1.4182 2c0.34913 1.1 1.081 2 1.6264 2 0.5454 0 0.71352 0.45 0.3736 1s0.30852 1 1.441 1c2.2803 0 2.5776-1.1625 1.0346-4.0456-0.91412-1.7081-0.72571-1.8636 1.75-1.4451 1.5259 0.25795 9.5244 1.1718 17.774 2.0308 50.332 5.2405 93.673 14.752 112.72 24.737 7.0694 3.7057 15.053 10.468 14.128 11.966-0.38049 0.61563-0.18726 0.77445 0.45745 0.37599 1.6912-1.0452 5.1928 6.6689 5.1928 11.44 0 5.3811-2.1619 9.7884-7.4913 15.272-5.981 6.1539-11.355 9.6604-24.75 16.15-22.533 10.916-53.465 19.631-117.51 33.107-60.416 12.712-70.198 15.02-87.245 20.59-22.885 7.476-31.011 15.274-23.333 22.39 3.8089 3.53 13.444 7.9767 23.503 10.847 9.9319 2.8342 44.067 9.8309 73.33 15.03 11 1.9545 24.725 4.4344 30.5 5.511 5.775 1.0766 20.4 3.5554 32.5 5.5086 12.1 1.9532 37.3 6.0206 56 9.0388 70.933 11.448 113.92 18.596 115.12 19.526 30.071 5.8558 47.821 8.2425 68.875 12.535 128.53 25.281 217.43 53.099 270.12 84.517 55.833 33.293 80.373 74.757 71.459 120.74-3.3112 17.081-12.291 40.289-20.02 51.742-1.6843 2.4957-3.0624 4.8945-3.0624 5.3307 0 0.82772-7.7412 12.209-13.814 20.31-1.9394 2.5871-3.8944 4.4762-4.3445 4.1981-0.45006-0.27816-0.59039 0.0882-0.31184 0.81405 1.0959 2.8558-42.317 48.651-44.715 47.169-0.63048-0.38966-0.84726-0.2479-0.49428 0.32324 0.34579 0.55951-0.82218 2.3224-2.5955 3.9175l-3.2242 2.9002-156.75 0.0166c-86.212 9e-3 -156.75-0.0743-156.75-0.18526 0-0.111 4.8375-2.7775 10.75-5.9256 5.9125-3.1481 13.793-7.4812 17.512-9.6291 3.7193-2.1479 7.2764-3.5876 7.9045-3.1994 0.64752 0.40018 0.87025 0.26598 0.51433-0.30991-0.34582-0.55954 2.5774-2.6948 6.5083-4.754 3.9248-2.056 9.2003-5.0349 11.723-6.6197l4.5872-2.8815-28.675-0.038-6.6625 3.7259c-3.6644 2.0492-6.7058 3.5117-6.7588 3.25-0.053-0.26173-0.85932 0.15738-1.7919 0.93136-0.93258 0.77397-3.5892 2.3923-5.9037 3.5963s-7.6848 4.0915-11.934 6.4167c-4.2799 2.3419-8.2516 3.9027-8.9045 3.4992-0.69691-0.43072-0.91337-0.2993-0.52965 0.32157 0.37849 0.61242-3.2035 3.0184-8.5955 5.7736-5.0844 2.598-9.4694 5.0308-9.7444 5.4062s-80.457 0.66671-178.18 0.64737c-97.726-0.0193-177.59-0.12539-177.48-0.23565zm504.76-73.401c1.5974-1.1375 2.9044-1.8329 2.9044-1.5455s1.1288-0.60613 2.5084-1.9857c1.3836-1.3836 3.0223-2.1908 3.6545-1.8 0.672 0.41532 0.87429 0.26851 0.48902-0.35488-0.37179-0.60156 2.0578-2.8379 5.5955-5.1504 3.4389-2.248 11.521-7.8016 17.96-12.341 6.439-4.5397 15.757-11.078 20.707-14.529s9.2704-6.7138 9.6018-7.25c0.37681-0.60968-3.3655-0.97484-9.9906-0.97484h-10.593l-7.216 4.8748c-11.641 7.8639-41.878 27.577-53.214 34.694-5.7597 3.6157-10.731 6.9919-11.046 7.5028-0.34231 0.55387 4.7368 0.92889 12.581 0.92889 11.696 0 13.477-0.2293 16.059-2.0681zm-105.17-58.682c-0.0386-0.4125-0.41709-1.6374-0.84097-2.722-0.69191-1.7704-0.82389-1.6938-1.291 0.75-0.36025 1.8845-0.1015 2.722 0.84097 2.722 0.74873 0 1.3297-0.3375 1.291-0.75zm-5.4368-1.2386c0.35034-0.56686-0.0511-0.7345-0.94098-0.39301-1.7324 0.66479-2.0494 1.3816-0.61096 1.3816 0.51754 0 1.2159-0.44485 1.5519-0.98855zm206.4-10.389c1.3174-1.4086 2.7911-2.3164 3.2748-2.0175s0.75576 0.16238 0.60464-0.30345c-0.47423-1.4617 8.0593-8.5223 9.342-7.7295 0.71125 0.43958 0.92957 0.31187 0.54117-0.31656-0.35806-0.57936 3.9512-5.0364 9.5761-9.9045l10.227-8.8511-8.8905-0.29126c-8.5945-0.28157-8.9933-0.19546-11.981 2.5871-7.0372 6.5549-24.646 19.287-25.74 18.612-0.69078-0.42693-0.88982-0.28056-0.49257 0.36221 0.37508 0.60689-2.0234 3.1892-5.4842 5.9045l-6.1508 4.8259 9.8887 0.5c10.885 0.55037 11.799 0.34827 15.284-3.3774zm43.973-44.456c2.9778-3.7598 12.08-19.851 12.115-21.417 9e-3 -0.4125-3.0208-0.74699-6.7333-0.74331l-6.75 7e-3 -3.6896 6.7433c-3.7324 6.8216-5.1097 8.8397-10.038 14.708-1.5 1.7862-2.5055 3.4694-2.2344 3.7404 0.27103 0.27104 3.5804 0.58295 7.3542 0.69314l6.8614 0.20035 3.114-3.9317zm12.669-33.917c-1.356-7.4149-9.2251-17.381-14.836-18.789-1.2444-0.31232-5.1457-0.43132-8.6695-0.26445l-6.407 0.30341 3.6884 2.5c2.0604 1.3965 3.4725 3.0747 3.1993 3.8019-0.26898 0.71606-0.0804 1.0494 0.41902 0.74071 1.4808-0.91517 7.0769 6.6169 8.3267 11.207l1.1571 4.25h13.808zm-26.537-28.177c-0.825-0.47637-8.8547-3.3877-17.844-6.4696-13.668-4.686-17.475-5.6035-23.25-5.6035-3.7984 0-6.9062 0.35176-6.9062 0.78168 0 0.42993 1.9125 1.363 4.25 2.0734s8.975 3.2311 14.75 5.6014c9.8691 4.0507 11.101 4.3148 20.5 4.3962 6.0821 0.0526 9.4123-0.25282 8.5-0.77961zm-60.083-22.445c-0.22917-0.20433-7.8877-2.6793-17.019-5.5-13.566-4.1907-17.94-5.1285-23.917-5.1285-4.0229 0-7.0337 0.28073-6.6906 0.62384s7.0556 2.7771 14.917 5.4088c12.832 4.296 15.255 4.7943 23.71 4.8762 5.1792 0.0501 9.2292-0.076 9-0.28034zm-63.917-20.422c0-0.43666-8.2125-2.6708-18.25-4.9649-17.427-3.9828-32.114-5.8318-31.491-3.9646 0.16013 0.48038 0.50489 0.85404 0.76614 0.83034s7.9 1.9345 16.975 4.3515c12.382 3.2978 18.434 4.4129 24.25 4.4681 4.2625 0.0404 7.75-0.28375 7.75-0.7204zm-145.62-37.525c-6.8994-1.9605-29.375-4.1582-29.375-2.8723 0 0.53256 1.4625 1.2283 3.25 1.5461 22.424 4.425 28.32 4.9611 26.125 1.3262zm77.414 18.801c-1.1976-1.0894-33.889-7.4825-38.262-7.4825-5.771 0-7.529 1.4248-2.7779 2.2515 1.5125 0.26317 7.025 1.5044 12.25 2.7583 9.334 2.24 23.769 3.8936 27.29 3.1262 0.98432-0.21453 1.6593-0.50862 1.5-0.65354zm-125.29-29.502c-2.7377-1.2102-31.79-5.9806-36.423-5.9806-7.881 0-4.6636 1.5417 8.6194 4.1301 13.214 2.575 32.319 3.8465 27.803 1.8504zm-178.17-13.247c-0.69254-1.1434-2.3259 0.16612-2.3259 1.8648 0 1.216 0.24921 1.2501 1.395 0.19099 0.76727-0.70919 1.1862-1.6343 0.9309-2.0557zm117.25 0.39554c-0.29599-0.47892-2.685-1.1055-5.309-1.3924-2.624-0.28691-8.9209-1.2669-13.993-2.1777s-12.047-1.5217-15.5-1.3576l-6.2777 0.29844 13 2.6306c12.685 2.5669 29.156 3.7392 28.08 1.9987zm-62.24-11.87c0.53636-0.86785-22.688-4.9121-32.09-5.588-9.1766-0.65975-5.6716 0.97508 7 3.265 6.7375 1.2175 12.597 2.2956 13.021 2.3958 2.8503 0.67333 11.641 0.62036 12.069-0.0727zm-60.84-12.291c-1.1-0.4931-7.5689-1.8126-14.375-2.9323-21.28-3.5006-27.662-2.2698-8.3112 1.603 10.829 2.1674 26.62 3.0926 22.687 1.3293zm-52.5-10.791c0-1.0288-23.978-5.2018-29.809-5.1879-5.5781 0.0134-4.6226 1.525 1.5298 2.4202 2.6286 0.38244 8.3792 1.2993 12.779 2.0375 9.4633 1.5876 15.5 1.872 15.5 0.73019zm-47.267-11.991c0.72997-0.46368-3.3476-1.8921-10-3.503-12.096-2.9292-14.304-3.1861-15.181-1.7663-0.81474 1.3183 8.8359 4.3213 16.449 5.1184 3.575 0.37433 6.725 0.73759 7 0.80725 0.275 0.0697 1.0546-0.22565 1.7326-0.65626zm-26.733-9.9415c0-0.4153-2.5875-1.7382-5.75-2.9398-5.9491-2.2604-7.5279-2.6248-10.5-2.4236-5.8345 0.39502 4.748 5.9683 11.5 6.0564 2.6125 0.0341 4.75-0.27776 4.75-0.69306zm-14-8.7449c0-0.825-0.42961-1.5-0.95469-1.5-0.52507 0-1.2502-1.575-1.6113-3.5-0.59699-3.1823-0.96423-3.5-4.0453-3.5-3.8661 0-4.1997 1.1233-1.9397 6.5321 1.2677 3.0341 1.8932 3.4679 5 3.4679 2.4898 0 3.551-0.44828 3.551-1.5zm1.8972-13.223c3.8208-3.3527 3.8975-4.2801 0.35283-4.2676-1.6252 6e-3 -4.546 1.4374-7.1407 3.5l-4.3907 3.4903h4.0379c2.9688 0 4.8595-0.72091 7.1407-2.7227zm10.603-7.3334c1.1-0.49648 3.35-1.4536 5-2.1271l3-1.2244-3.2966-0.3631c-2.1781-0.2399-5.4014 0.63815-9.5 2.5878l-6.2034 2.9509 4.5-0.46078c2.475-0.25343 5.4-0.86699 6.5-1.3635zm21.762-7.8228c6.3056-1.6445 7.9446-3.1212 3.4643-3.1212-3.3247 0-15.726 3.2835-15.726 4.1637 0 1.3017 4.8563 0.88885 12.262-1.0426zm-7.9931-4.7771c-0.67703-0.27392-2.027-0.29059-3-0.0371-0.97297 0.25354-0.41903 0.47766 1.231 0.49804 1.65 0.0204 2.4461-0.18706 1.769-0.46099zm6.231-0.34406c0.731-1.1828-0.24752-1.1828-3 0-1.9282 0.82859-1.9214 0.86195 0.19098 0.92971 1.205 0.0387 2.4691-0.37971 2.809-0.92971zm28.906-1.5317 5.0938-1.2472-3.9181-0.11058c-4.9692-0.14024-16.582 1.8524-16.582 2.8453 0 0.96986 8.866 0.11382 15.406-1.4875zm-41.406-0.46834c-0.5887-1.1-1.4624-2-1.9416-2-0.47916 0-0.63585 0.9-0.34819 2s1.1614 2 1.9416 2c1.1087 0 1.1847-0.43689 0.34818-2zm12.729-3.6042c-0.3323-0.33229-1.1948-0.36781-1.9167-0.0789-0.79773 0.31922-0.56078 0.55618 0.60417 0.60416 1.0542 0.0434 1.6448-0.19293 1.3125-0.52522zm52.906-0.56868c6.1128-1.1263 8.7871-2.9122 4.1153-2.7482-3.938 0.13826-15.557 2.3948-16.335 3.1723-1.1173 1.1173 5.0075 0.90465 12.219-0.42418zm-65.635-0.26813c0-0.24254-0.45-0.7191-1-1.059s-1-0.14148-1 0.44098 0.45 1.059 1 1.059 1-0.19844 1-0.44098zm10-2.559c0-0.55-0.47656-1-1.059-1s-0.7809 0.45-0.44098 1 0.81648 1 1.059 1 0.44098-0.45 0.44098-1zm81.583-2.141c6.2856-1.2121 9.4436-2.859 5.4821-2.859-3.7477 0-15.478 2.2453-16.515 3.1614-1.3501 1.1919 4.0523 1.0438 11.033-0.3023zm26-5c5.9439-1.1462 9.5078-2.859 5.9487-2.859-3.5762 0-15.038 2.233-15.982 3.1135-1.3184 1.2303 2.8866 1.1237 10.033-0.25444zm26.051-5.0319c3.5009-0.64507 6.3653-1.5451 6.3653-2 0-1.1092-1.6899-1.0454-9.9814 0.3764-3.8602 0.66195-7.0186 1.562-7.0186 2 0 1.1081 3.191 0.99515 10.635-0.3764zm24.116-4.9442c3.5282-0.6144 6.032-1.4999 5.5642-1.9678-0.96742-0.96742-14.316 0.91809-15.765 2.2268-1.308 1.1813 2.4823 1.0851 10.201-0.25908zm23.647-5.0339c3.1523-0.63307 5.2377-1.4562 4.6343-1.8291-1.2531-0.77447-13.503 1.0935-14.625 2.2301-1.0832 1.0974 3.4322 0.91613 9.9909-0.40103zm22.102-5.4088 5-1.3678-7 0.5161c-3.85 0.28386-7.4275 0.94257-7.95 1.4638-1.3622 1.3589 3.9364 1.033 9.95-0.6121zm18.424-4.6119c2.792-0.64446 5.0763-1.5932 5.0763-2.1084s-1.0125-0.68439-2.25-0.37607c-1.2375 0.30833-4.1625 0.86462-6.5 1.2362-2.3375 0.37159-4.25 1.0681-4.25 1.5478 0 1.1694 1.8652 1.0989 7.9237-0.29956zm19.576-6.8597c4.3438-1.7476 1.1797-2.4979-3.8657-0.91658-5.559 1.7423-7.1658 3.3683-2.6343 2.666 1.925-0.29836 4.85-1.0856 6.5-1.7494zm14.413-6.7896c2.9047-1.2817 3.2008-1.6473 1.5568-1.9217-2.5142-0.4196-9.4697 2.3888-9.4697 3.8235 0 1.1509 2.1843 0.62595 7.9129-1.9018zm9.1368-5.7047c2.8097-1.453 3.9916-3.4743 2.0314-3.4743-1.4064 0-7.0676 3.4008-7.0747 4.25-0.01 1.1709 1.8246 0.88878 5.0433-0.77568zm8.4559-7.4805c0.99854-1.1034 1.5323-2.2893 1.1862-2.6355-0.79679-0.79679-5.6917 2.3548-5.6917 3.6646 0 1.6689 2.6016 1.0746 4.5056-1.0292zm4.0045-5.0102c0.34546-0.55897 1.1166-0.71444 1.7135-0.34549 0.7221 0.44628 0.78778 0.20071 0.19621-0.73369-0.48906-0.77248-0.89609-3.1983-0.90451-5.3908-0.0119-3.0906-0.43515-4.0672-1.8837-4.3461-1.2626-0.24315-1.625 0.03414-1.1175 0.85516 1.3495 2.1835 1.2687 6.9127-0.13806 8.0802-0.75679 0.62808-1.376 1.5369-1.376 2.0195 0 1.2141 2.7409 1.1057 3.5101-0.13876zm-1.5101-13.484c-0.68469-0.825-1.6398-1.5-2.1224-1.5-0.48266 0-1.7776-0.9-2.8776-2s-2.675-2-3.5-2-1.5-0.40122-1.5-0.89159-1.0832-1.1635-2.4071-1.4957c-1.3239-0.33228-3.2364-0.91532-4.25-1.2956-1.6234-0.60912-1.6794-0.49051-0.47046 0.99574 0.75485 0.92798 1.8865 1.6872 2.5148 1.6872 1.7594 0 8.8992 4.0048 10.902 6.1149 2.2326 2.3525 5.6371 2.7058 3.711 0.38508zm-20-10.383c0-0.92413-3.4266-2.1049-6-2.0675-0.88501 0.01285-0.47502 0.60771 1 1.4509 2.8664 1.6386 5 1.9017 5 0.61663zm-12-4.5596c-3.7023-1.3655-5.4452-1.0827-2.971 0.48205 0.80907 0.51167 2.596 0.90297 3.971 0.86955 2.1939-0.05333 2.0715-0.21881-1-1.3516zm-9.5-3.0415c-1.65-0.72714-3.3855-1.0843-3.8568-0.79378-1.3201 0.81401 1.5584 2.2555 4.3568 2.1818 2.435-0.06419 2.422-0.10026-0.5-1.388zm-10.066-2.6177c-2.7882-1.0919-6.0342-1.0885-4.8836 0.0052 1.2186 1.1582 4.6746 1.8916 5.8836 1.2486 0.5135-0.27311 0.0635-0.83731-1-1.2538zm-9.9336-1.8978c-0.33992-0.55-2.054-0.99311-3.809-0.98469-2.4281 0.01165-2.8324 0.24707-1.691 0.98469 1.9833 1.2817 6.2921 1.2817 5.5 0zm-11-2c-0.33992-0.55-1.829-0.99311-3.309-0.98469-2.1048 0.01198-2.3642 0.22649-1.191 0.98469 1.9759 1.2769 5.2892 1.2769 4.5 0zm-10-2c-2.7911-1.1994-5.7412-1.1994-5 0 0.33992 0.55 2.054 0.96837 3.809 0.92972 2.6898-0.05925 2.8769-0.20527 1.191-0.92972zm-9.5-1c0-0.55-1.4625-0.96837-3.25-0.92972-2.7235 0.0589-2.926 0.20951-1.25 0.92972 2.7627 1.1872 4.5 1.1872 4.5 0zm-9.5-1c0.35912-0.58106-0.55877-0.97056-2.191-0.92972-2.4708 0.06182-2.5682 0.17376-0.80902 0.92972 1.1 0.47269 2.0859 0.89106 2.191 0.92972 0.10504 0.03866 0.4691-0.37972 0.80902-0.92972zm-8.75-1.6893c-0.9625-0.25153-2.5375-0.25153-3.5 0-0.9625 0.25153-0.175 0.45732 1.75 0.45732s2.7125-0.2058 1.75-0.45732zm-8.481-0.96661c-0.67703-0.27392-2.027-0.2906-3-0.03705-0.97297 0.25354-0.41903 0.47766 1.231 0.49804 1.65 0.02038 2.4461-0.18706 1.769-0.46099zm-8-1c-0.67703-0.27392-2.027-0.2906-3-0.03705-0.97297 0.25354-0.41903 0.47766 1.231 0.49804 1.65 0.02038 2.4461-0.18706 1.769-0.46099zm563.7 563.16c4.842-4.95 10.25-10.686 12.018-12.747 1.7679-2.0607 3.6886-3.4537 4.2682-3.0955 0.61163 0.37801 0.75855 0.17359 0.35015-0.48721-0.40081-0.64852 2.1375-4.629 5.8981-9.2491 3.6309-4.4608 8.2168-10.543 10.191-13.516 3.5568-5.357 5.0722-6.845 3.9243-3.8535-0.36243 0.94447-0.18191 1.2963 0.46119 0.89885 0.58119-0.3592 0.81773-1.2759 0.52564-2.0371-0.2921-0.76119 1.2512-4.0673 3.4296-7.3469s4.4839-7.1113 5.1234-8.5149c0.63951-1.4036 1.6155-2.552 2.1689-2.552 0.55339 0 0.74132-0.26484 0.41763-0.58852-0.32369-0.32369 0.63752-2.6862 2.136-5.25 3.619-6.1918 10.294-21.759 13.532-31.557 4.8506-14.68 6.8702-26.919 6.8652-41.604-7e-3 -20.087-4.2182-36.532-13.534-52.849-2.3343-4.0886-4.1197-8.0114-3.9676-8.7172s-0.18026-1.5656-0.73855-1.9106c-0.59651-0.36867-0.7695 0.0126-0.41953 0.92459 1.033 2.6921-0.26066 1.6907-2.8397-2.1981-6.2504-9.4246-23.614-25.787-36.524-34.418-2.8851-1.9289-5.0226-3.7301-4.75-4.0027 0.2726-0.2726-0.0669-0.51592-0.75436-0.54071-0.6875-0.0248-5.525-2.6516-10.75-5.8372-8.7585-5.34-30.73-16.289-39-19.435-1.925-0.7323-5.34-2.1386-7.589-3.1252-2.2489-0.98655-10.799-4.231-19-7.2098-45.009-16.348-97.301-31.078-156.91-44.198-26.715-5.8799-94.758-19.483-97.455-19.483-1.5294 0-23.606-4.4083-23.606-6.328 0-1.9746 21.839 1.8135 23.185 2.2096 0.9625 0.28322 7.2754 0.97171 13.875 2.1428 49.27 8.7424 119.93 24.403 158.5 35.132 32.121 8.9334 67.505 20.097 83.96 26.489 50.636 19.67 76.554 32.65 101.54 50.853 12.013 8.7522 27.762 23.269 26.848 24.748-0.36112 0.58431-0.20529 0.78346 0.34628 0.44257 0.55158-0.3409 3.3129 2.2629 6.1363 5.7862 31.657 39.504 37.292 86.484 16.812 140.15-3.8815 10.171-13.293 29.54-14.809 30.477-0.55224 0.3413-0.9502 1.0202-0.88436 1.5087 0.15561 1.1544-11.166 19.37-16.24 26.128-2.1635 2.8818-4.4026 4.9498-4.9759 4.5955-0.57321-0.35426-0.75425-0.17819-0.4023 0.39127 0.35194 0.56946-0.74419 2.7765-2.4358 4.9045l-3.0758 3.8691h-50.654zm33.74-230.29c-1.2975-0.26925-1.6133-0.93348-1.1451-2.4088 0.46163-1.4545 0.25904-1.907-0.70842-1.5826-1.2389 0.4155-1.9347 3.3532-1.1696 4.9384 0.17417 0.36087 1.3287 0.37906 2.5657 0.0404 1.8815-0.51507 1.9562-0.67643 0.45743-0.98745zm-378.88-118.28c-6.2369-1.4736-72.429-12.555-109.82-18.386-19.525-3.0444-38.2-5.991-41.5-6.548-3.3-0.55691-17.925-2.8151-32.5-5.0182-35.018-5.2932-41.148-6.3096-70-11.606-25.803-4.7369-58.224-12.198-57.578-13.251 0.2098-0.34196-0.8712-0.66698-2.4022-0.72226-3.8239-0.13807-15.067-5.5381-18.336-8.8062-3.0876-3.0876-3.4594-6.5999-0.93418-8.826 3.4186-3.0136 14.233-7.7552 25.423-11.147 12.509-3.7917 43.407-10.927 45.007-10.393 0.55699 0.18566-5.8411 1.8133-14.218 3.617-30.535 6.5747-48.317 12.811-52.321 18.349-1.8288 2.5297-1.8471 2.8448-0.30163 5.2035 6.4992 9.9191 45.433 19.35 134.6 32.603 10.759 1.5991 27.211 4.0736 36.561 5.499 9.35 1.4253 24.425 3.7152 33.5 5.0887 76.419 11.566 128.62 21.746 130.28 21.351 1.7334-0.41209 2.7815 4.4999 1.7434 4.3377-0.35365-0.0553-5.1805-0.86739-7.2024-1.3451zm-450.07-34.689c-3.4074-2.1126-3.5067-3.2418-0.28518-3.2418 1.4134 0 2.9064 0.82507 3.5 1.9343 1.928 3.6025 1.0577 3.9565-3.2148 1.3075zm191.75-61.242c1.65-0.41985 3.9-0.77176 5-0.78201 1.5672-0.0146 1.459 0.15463-0.5 0.78201-1.375 0.44035-3.625 0.79225-5 0.78201-2.2456-0.0167-2.1947-0.0963 0.5-0.78201zm16-3.1847c4.95-1.0976 20.25-4.4534 34-7.4573 49.412-10.795 80.794-19.902 101.16-29.355 14.997-6.9618 28.134-16.833 31.776-23.876 0.88934-1.7198 1.8396-3.1269 2.1116-3.1269 1.6458 0-4.285 8.4712-8.819 12.597-16.69 15.186-54.652 29.111-116.73 42.814-25.117 5.5447-49.578 10.576-51 10.491-0.825-0.0498 2.55-0.98852 7.5-2.0861zm53.312-45.498c0.72187-0.28887 1.5844-0.25334 1.9167 0.07895 0.33229 0.33229-0.25834 0.56864-1.3125 0.52522-1.165-0.04798-1.4019-0.28494-0.60417-0.60417zm4-1c0.72187-0.28887 1.5844-0.25334 1.9167 0.07895 0.33229 0.33229-0.25834 0.56864-1.3125 0.52522-1.165-0.04798-1.4019-0.28494-0.60417-0.60417zm4-1c0.72187-0.28887 1.5844-0.25334 1.9167 0.07895 0.33229 0.33229-0.25834 0.56864-1.3125 0.52522-1.165-0.04798-1.4019-0.28494-0.60417-0.60417zm4.6875-1.3169c1.1-0.47269 2.675-0.85943 3.5-0.85943 0.94548 0 0.76064 0.31771-0.5 0.85943-1.1 0.47269-2.675 0.85943-3.5 0.85943-0.94548 0-0.76064-0.31771 0.5-0.85943zm7-2c1.1-0.47269 2.675-0.85943 3.5-0.85943 0.94548 0 0.76064 0.31771-0.5 0.85943-1.1 0.47269-2.675 0.85943-3.5 0.85943-0.94548 0-0.76064-0.31771 0.5-0.85943zm13.42-4.0699c2.9809-1.0581 5.5928-1.7508 5.8042-1.5394 0.46649 0.46649-8.642 3.6392-10.152 3.5362-0.58952-0.04019 1.3671-0.93876 4.348-1.9968zm18.658-7.3791c8.9462-4.3775 15.262-9.4377 15.589-12.491 0.0921-0.85809 0.20462-2.6852 0.25-4.0602 0.13228-4.009 2.0583-3.4035 2.3296 0.73235 0.28843 4.3981-1.73 7.0957-9.1065 12.171-4.2755 2.9416-15.352 8.1023-17.371 8.0933-0.42343-0.0019 3.3153-2.0024 8.3082-4.4455zm64.501-4.1344c0.048-1.1649 0.28494-1.4019 0.60416-0.60417 0.28887 0.72188 0.25335 1.5844-0.0789 1.9167-0.33229 0.33229-0.56864-0.25833-0.52522-1.3125zm1.0789-4.4167c0-1.375 0.22698-1.9375 0.50439-1.25s0.27741 1.8125 0 2.5-0.50439 0.125-0.50439-1.25zm-1.8382-6.75c-1.0358-3.3209-1.0066-3.5279 0.2553-1.8089 1.1938 1.6261 2.0213 5.5589 1.1697 5.5589-0.14042 0-0.78168-1.6875-1.425-3.75zm-51.845-7.2767c-7.1554-7.4686-21.204-12.71-50.974-19.017-7.15-1.5149-12.232-2.7997-11.294-2.8551 2.9124-0.17191 30.513 5.845 39.119 8.528 15.095 4.7059 29.519 12.846 27.118 15.303-0.75238 0.76992-1.8952 0.20596-3.969-1.9587zm46.026-1.1608c-2.2-2.3022-3.004-3.5085-1.7868-2.6807 1.9934 1.3556 6.8988 6.8695 6.1094 6.8674-0.17742-4.88e-4 -2.1226-1.8845-4.3226-4.1866zm-12.5-8.8125c-0.90129-0.58246-1.0246-0.97549-0.30902-0.98469 0.65504-0.0084 1.4691 0.43469 1.809 0.98469 0.7673 1.2415 0.42112 1.2415-1.5 0zm-101.25-12.662c0.6875-0.27741 1.8125-0.27741 2.5 0 0.6875 0.27741 0.125 0.50439-1.25 0.50439s-1.9375-0.22697-1.25-0.50439zm-5.481-1.0307c0.97297-0.25354 2.323-0.23687 3 0.03705 0.67703 0.27392-0.11903 0.48137-1.769 0.46099s-2.2039-0.2445-1.231-0.49804zm-7-1c0.97297-0.25354 2.323-0.23687 3 0.03705 0.67703 0.27392-0.11903 0.48137-1.769 0.46099s-2.2039-0.2445-1.231-0.49804zm-7.019-0.99634c0.9625-0.25153 2.5375-0.25153 3.5 0 0.9625 0.25153 0.175 0.45732-1.75 0.45732s-2.7125-0.2058-1.75-0.45732zm-6.981-1.0037c0.97297-0.25354 2.323-0.23687 3 0.03705 0.67703 0.27392-0.11903 0.48137-1.769 0.46099s-2.2039-0.2445-1.231-0.49804zm-8.019-0.99634c0.9625-0.25153 2.5375-0.25153 3.5 0 0.9625 0.25153 0.175 0.45732-1.75 0.45732s-2.7125-0.2058-1.75-0.45732zm-15.438-1.9938c0.72187-0.28887 1.5844-0.25334 1.9167 0.07895 0.33229 0.33229-0.25834 0.56864-1.3125 0.52522-1.165-0.04798-1.4019-0.28494-0.60417-0.60417zm-0.0769-1.9147c-1.3048-1.3048 0.62751-3.4014 3.1214-3.3869 3.2729 0.01896 6.7926 1.9365 3.643 1.9847-1.659 0.0254-1.7442 0.19593-0.5 1 1.1226 0.72545 0.59834 0.97323-2.0833 0.98469-1.9708 0.0084-3.8523-0.25368-4.1811-0.58245zm2.9936-1.0064c-0.33229-0.33229-1.1948-0.36782-1.9167-0.07895-0.79773 0.31923-0.56078 0.55618 0.60417 0.60417 1.0542 0.04342 1.6448-0.19293 1.3125-0.52522zm-13.544-0.26012c-0.72305-0.45851-2.3578-0.63424-3.6328-0.39052-1.275 0.24373-2.5907 0.0022-2.9238-0.53681-0.35089-0.56776-3.3445-0.76009-7.1172-0.45726-3.5836 0.28766-6.5116 0.11759-6.5116-0.3782 0-0.49549-3.2625-0.91187-7.25-0.9253-10.294-0.03467-59.799-2.2651-75.25-3.3904-15.377-1.1199-38.314-2.1972-51.249-2.4071-5.0872-0.0825-9.2497-0.37509-9.25-0.65009-3.3e-4 -0.275-7.9881-0.56581-17.751-0.64623-35.642-0.29363-53.132-0.86829-52.284-1.7179 1.1732-1.1756 147.87-0.0693 171.03 1.2899 10.175 0.59703 30.324 1.983 44.775 3.0799 14.451 1.0969 26.506 1.9944 26.789 1.9944s-0.40316 0.98485-1.5246 2.1886c-1.1214 1.2037-2.039 2.5537-2.039 3 0 1.0578-4.1223 1.0203-5.8146-0.05284zm-270.37-10.819c0.72187-0.28887 1.5844-0.25334 1.9167 0.0789 0.33229 0.33229-0.25834 0.56864-1.3125 0.52522-1.165-0.048-1.4019-0.28494-0.60417-0.60417z"/>
</svg>
