<svg version="1.1" viewBox="0 0 852.55 219.11" xml:space="preserve" xmlns="http://www.w3.org/2000/svg"><g transform="matrix(1.3333 0 0 -1.3333 -14.635 568.21)" fill="#212121" fill-opacity=".89552"><g fill="#212121" fill-opacity=".89552"><g clip-path="url(#clipPath4711)" fill="#212121" fill-opacity=".89552" fill-rule="evenodd"><path d="m393.2 343.99c0.786 1.08 1.567 2.15 2.337 3.207 4.033 4.814 8.484 9.207 13.318 13.193 1.779 1.497 3.555 2.962 5.331 4.392 2.31 1.808 4.696 3.533 7.153 5.181 0.144 0.073 0.366 0.107 0.609 0.093 0.244-0.014 0.49-0.075 0.684-0.166 7.535-3.06 15.131-6.368 22.788-9.932 10.149-4.643 20.353-9.815 30.58-15.539 0.187-0.117 0.402-0.224 0.634-0.315 0.083-0.027 0.171-0.033 0.227-0.013 0.064 0.026 0.082 0.063 0.068 0.115-0.118 0.183-0.292 0.368-0.518 0.539-0.767 0.635-1.648 1.24-2.619 1.813-5.192 3.767-10.377 7.35-15.556 10.75-2.696 1.696-5.391 3.345-8.088 4.95-2.444 1.533-4.95 3.009-7.512 4.43-5.445 3.163-10.914 6.148-16.401 8.955 2.161 2.714 3.964 5.412 5.428 8.079 0.728 1.138 1.321 2.285 1.79 3.437 0.584 1.17 1.108 2.33 1.568 3.483 0.689 2.201 1.169 4.369 1.437 6.499 0.175 0.311 0.245 0.638 0.212 0.976 3e-3 0.091-0.04 0.188-0.126 0.281 0 0-0.088 0.049-0.154 0.061-0.059 0.011-0.119 7e-3 -0.154-6e-3 -0.086-0.048-0.14-0.104-0.166-0.165-2.218-3.171-5.211-6.339-8.996-9.466-3.04-2.613-6.519-5.217-10.443-7.8-0.093-0.079-0.264-0.134-0.477-0.147-0.216-0.011-0.456 0.018-0.66 0.082-3.815 1.415-7.493 2.843-11.032 4.282-2.659 1.099-5.266 2.192-7.817 3.276-6.504 2.727-12.426 5.494-17.75 8.274-2.863 1.621-5.662 3.207-8.397 4.754-1.086 0.63-1.978 1.295-2.661 1.978-3.473 2.408-6.234 4.83-8.278 7.227-1.367 1.485-2.464 2.958-3.294 4.411-0.42 0.578-0.669 1.16-0.743 1.736-0.355 1.071-0.652 2.123-0.888 3.158-0.104 1.206-0.021 2.385 0.242 3.533 0.329 0.483 0.599 0.966 0.81 1.45 0.246 0.347 0.514 0.69 0.812 1.029 0 0 0 0.049-0.049 0.072-0.043 0.016-0.114 0.023-0.17 0.011l-0.093-0.022c-0.185-0.084-0.318-0.182-0.39-0.286-1.194-0.963-2.023-1.997-2.452-3.079-0.892-1.511-1.359-3.093-1.376-4.735-0.101-0.734 0.014-1.485 0.35-2.238 0.123-1.589 0.632-3.221 1.535-4.88 0.837-1.503 1.905-3.028 3.204-4.571 1.018-0.843 1.885-1.72 2.592-2.624 4.371-4.433 10.582-8.934 18.59-13.351 3.889-2.333 8.018-4.704 12.384-7.116 1.668-0.84 3.312-1.704 4.943-2.588 1.892-0.931 3.847-1.857 5.86-2.776 1.39-0.571 2.716-1.183 3.967-1.831 0.285-0.137 0.566-0.271 0.852-0.408-0.159-0.136-0.321-0.271-0.481-0.409-0.669-0.659-1.455-1.292-2.361-1.891-1.255-0.98-2.463-1.997-3.631-3.039-0.958-1.015-1.976-2.027-3.054-3.036-2.776-3.023-5.488-6.203-8.138-9.544-3.786-4.152-7.002-8.731-9.581-13.734 2.579-5.006 5.795-9.585 9.581-13.737 2.65-3.34 5.362-6.52 8.138-9.544 1.078-1.008 2.096-2.021 3.054-3.035 1.168-1.042 2.376-2.06 3.631-3.039 0.906-0.6 1.692-1.232 2.361-1.892 0.16-0.137 0.322-0.273 0.481-0.408-0.286-0.137-0.567-0.272-0.852-0.408-1.251-0.65-2.577-1.26-3.967-1.831-2.013-0.919-3.968-1.845-5.86-2.776-1.631-0.885-3.275-1.747-4.943-2.588-4.366-2.412-8.495-4.784-12.384-7.117-8.008-4.417-14.219-8.918-18.59-13.351-0.707-0.905-1.574-1.78-2.592-2.624-1.299-1.542-2.367-3.069-3.204-4.569-0.903-1.661-1.412-3.292-1.535-4.882-0.336-0.754-0.451-1.503-0.35-2.239 0.017-1.64 0.484-3.224 1.376-4.73 0.429-1.086 1.258-2.119 2.452-3.082 0.072-0.106 0.205-0.202 0.39-0.287l0.093-0.023c0.056-0.011 0.127-2e-3 0.17 0.011 0.049 0.026 0.049 0.073 0.049 0.073-0.298 0.339-0.566 0.682-0.812 1.029-0.211 0.483-0.481 0.968-0.81 1.451-0.263 1.146-0.346 2.326-0.242 3.533 0.236 1.033 0.533 2.087 0.888 3.158 0.074 0.576 0.323 1.156 0.743 1.735 0.83 1.452 1.927 2.926 3.294 4.412 2.044 2.397 4.805 4.818 8.278 7.228 0.683 0.684 1.575 1.347 2.661 1.975 2.735 1.55 5.534 3.135 8.397 4.753 5.324 2.783 11.246 5.549 17.75 8.276 2.551 1.086 5.158 2.176 7.817 3.276 3.539 1.44 7.217 2.868 11.032 4.282 0.204 0.066 0.444 0.093 0.66 0.081 0.213-0.011 0.384-0.066 0.477-0.145 3.924-2.585 7.403-5.188 10.443-7.8 3.785-3.128 6.778-6.295 8.996-9.465 0.026-0.063 0.08-0.118 0.166-0.167 0.035-0.013 0.095-0.017 0.154-6e-3 0.066 0.012 0.154 0.061 0.154 0.061 0.086 0.093 0.129 0.19 0.126 0.281 0.033 0.338-0.037 0.665-0.212 0.975-0.268 2.133-0.748 4.299-1.437 6.501-0.46 1.152-0.984 2.312-1.568 3.484-0.469 1.15-1.062 2.297-1.79 3.437-1.464 2.666-3.267 5.363-5.428 8.078 5.487 2.807 10.956 5.79 16.401 8.955 2.562 1.421 5.068 2.896 7.512 4.431 2.697 1.604 5.392 3.254 8.088 4.949 5.179 3.399 10.364 6.982 15.556 10.749 0.971 0.573 1.852 1.179 2.619 1.814 0.226 0.17 0.4 0.355 0.518 0.539 0.014 0.051-4e-3 0.088-0.068 0.115-0.056 0.02-0.144 0.013-0.227-0.014-0.232-0.091-0.447-0.198-0.634-0.316-10.227-5.722-20.431-10.894-30.58-15.537-7.657-3.565-15.253-6.873-22.788-9.933-0.194-0.09-0.44-0.152-0.684-0.165-0.243-0.014-0.465 0.019-0.609 0.093-2.457 1.648-4.843 3.373-7.153 5.18-1.776 1.43-3.552 2.894-5.331 4.393-4.834 3.985-9.285 8.378-13.318 13.192-0.77 1.058-1.551 2.127-2.337 3.21"/><path d="m268.17 343.99c-0.788 1.081-1.566 2.15-2.338 3.207-4.034 4.814-8.486 9.207-13.317 13.193-1.781 1.497-3.557 2.961-5.332 4.392-2.31 1.807-4.697 3.532-7.154 5.181-0.146 0.072-0.365 0.107-0.61 0.093-0.244-0.014-0.489-0.075-0.682-0.166-7.535-3.06-15.133-6.368-22.79-9.933-10.149-4.642-20.353-9.814-30.579-15.538-0.187-0.116-0.402-0.222-0.635-0.315-0.082-0.028-0.17-0.033-0.226-0.014-0.064 0.027-0.082 0.064-0.067 0.116 0.123 0.181 0.291 0.368 0.517 0.539 0.768 0.635 1.649 1.24 2.62 1.813 5.192 3.767 10.377 7.349 15.555 10.75 2.697 1.695 5.39 3.347 8.088 4.95 2.445 1.535 4.951 3.009 7.512 4.43 5.443 3.165 10.914 6.148 16.401 8.955-2.16 2.714-3.968 5.41-5.427 8.079-0.729 1.136-1.323 2.285-1.791 3.437-0.587 1.169-1.107 2.33-1.568 3.483-0.689 2.201-1.168 4.369-1.437 6.499-0.174 0.311-0.243 0.638-0.212 0.976-2e-3 0.091 0.045 0.185 0.126 0.281 0 0 0.088 0.05 0.156 0.061 0.059 0.012 0.119 9e-3 0.152-6e-3 0.084-0.048 0.139-0.105 0.166-0.165 2.217-3.172 5.209-6.34 8.997-9.466 3.038-2.613 6.519-5.217 10.443-7.8 0.092-0.079 0.262-0.134 0.477-0.147 0.214-0.011 0.454 0.018 0.66 0.082 3.814 1.415 7.493 2.844 11.032 4.282 2.659 1.101 5.263 2.192 7.818 3.276 6.502 2.727 12.426 5.493 17.75 8.274 2.86 1.62 5.659 3.207 8.397 4.754 1.085 0.631 1.977 1.295 2.661 1.978 3.473 2.407 6.232 4.83 8.276 7.227 1.369 1.485 2.466 2.958 3.295 4.411 0.421 0.577 0.667 1.16 0.746 1.736 0.353 1.071 0.65 2.123 0.884 3.158 0.105 1.206 0.022 2.385-0.242 3.533-0.328 0.483-0.598 0.966-0.812 1.45-0.243 0.348-0.511 0.69-0.809 1.029 0 0 0 0.049 0.046 0.072 0.046 0.016 0.118 0.02 0.172 0.011l0.094-0.022c0.184-0.084 0.317-0.182 0.39-0.286 1.195-0.962 2.021-1.997 2.452-3.079 0.89-1.511 1.356-3.093 1.375-4.735 0.1-0.734-0.013-1.485-0.35-2.238-0.122-1.589-0.632-3.221-1.532-4.88-0.838-1.503-1.907-3.028-3.207-4.571-1.019-0.841-1.885-1.72-2.593-2.624-4.367-4.432-10.58-8.933-18.588-13.351-3.889-2.331-8.016-4.705-12.386-7.116-1.664-0.84-3.312-1.704-4.942-2.588-1.892-0.931-3.845-1.857-5.862-2.776-1.389-0.571-2.713-1.181-3.964-1.831-0.284-0.136-0.569-0.271-0.854-0.408 0.161-0.136 0.322-0.273 0.483-0.409 0.667-0.661 1.457-1.292 2.36-1.891 1.254-0.98 2.463-1.997 3.634-3.039 0.955-1.015 1.974-2.027 3.054-3.036 2.776-3.022 5.486-6.204 8.136-9.544 3.786-4.152 7.003-8.732 9.579-13.734-2.576-5.005-5.793-9.585-9.579-13.737-2.65-3.34-5.36-6.522-8.136-9.544-1.08-1.008-2.099-2.021-3.054-3.035-1.171-1.042-2.38-2.06-3.634-3.039-0.903-0.6-1.693-1.229-2.36-1.892-0.161-0.135-0.322-0.273-0.483-0.408 0.285-0.137 0.57-0.273 0.854-0.408 1.251-0.65 2.575-1.26 3.964-1.831 2.017-0.919 3.97-1.845 5.862-2.776 1.63-0.885 3.278-1.747 4.942-2.588 4.37-2.412 8.497-4.785 12.386-7.117 8.008-4.419 14.221-8.918 18.588-13.351 0.708-0.905 1.574-1.782 2.593-2.624 1.3-1.542 2.369-3.069 3.207-4.569 0.9-1.661 1.41-3.292 1.532-4.882 0.337-0.754 0.45-1.503 0.35-2.239-0.019-1.64-0.485-3.224-1.375-4.73-0.431-1.086-1.257-2.122-2.452-3.082-0.073-0.106-0.206-0.202-0.39-0.287l-0.094-0.023c-0.054-7e-3 -0.126-2e-3 -0.172 0.011-0.046 0.026-0.046 0.073-0.046 0.073 0.298 0.339 0.566 0.682 0.809 1.029 0.214 0.483 0.484 0.968 0.812 1.451 0.264 1.146 0.347 2.326 0.242 3.533-0.234 1.033-0.531 2.087-0.884 3.158-0.079 0.576-0.325 1.156-0.746 1.735-0.829 1.452-1.926 2.926-3.295 4.412-2.044 2.397-4.803 4.82-8.276 7.228-0.684 0.684-1.576 1.347-2.661 1.975-2.738 1.55-5.537 3.135-8.397 4.753-5.324 2.783-11.248 5.549-17.75 8.276-2.555 1.086-5.159 2.176-7.818 3.276-3.539 1.439-7.218 2.868-11.032 4.282-0.206 0.066-0.446 0.093-0.66 0.081-0.215-0.011-0.385-0.066-0.477-0.145-3.924-2.585-7.405-5.188-10.443-7.8-3.788-3.128-6.78-6.295-8.997-9.465-0.027-0.062-0.082-0.118-0.166-0.167-0.033-0.014-0.093-0.017-0.152-6e-3 -0.068 0.011-0.156 0.061-0.156 0.061-0.081 0.099-0.128 0.19-0.126 0.281-0.031 0.338 0.038 0.665 0.212 0.975 0.269 2.133 0.748 4.3 1.437 6.501 0.461 1.152 0.981 2.314 1.568 3.484 0.468 1.15 1.062 2.3 1.791 3.437 1.459 2.668 3.267 5.363 5.427 8.078-5.487 2.807-10.958 5.79-16.401 8.955-2.561 1.421-5.067 2.895-7.512 4.431-2.698 1.602-5.391 3.254-8.088 4.949-5.178 3.4-10.363 6.982-15.555 10.749-0.971 0.573-1.852 1.179-2.62 1.814-0.226 0.17-0.394 0.358-0.517 0.539-0.015 0.051 3e-3 0.088 0.067 0.115 0.056 0.02 0.144 0.014 0.226-0.014 0.233-0.091 0.448-0.199 0.635-0.316 10.226-5.724 20.43-10.894 30.579-15.536 7.657-3.566 15.255-6.874 22.79-9.934 0.193-0.09 0.438-0.152 0.682-0.165 0.245-0.014 0.464 0.02 0.61 0.093 2.457 1.649 4.844 3.374 7.154 5.18 1.775 1.432 3.551 2.894 5.332 4.393 4.831 3.985 9.283 8.378 13.317 13.192 0.772 1.058 1.55 2.127 2.338 3.21"/><path d="m573.54 343.99c-2.469 1.081-4.912 2.15-7.324 3.207-11.518 4.816-22.797 9.208-33.824 13.193-4.109 1.502-8.161 2.961-12.158 4.392-5.12 1.808-10.188 3.536-15.206 5.181-0.26 0.075-0.532 0.106-0.754 0.093-0.223-0.014-0.374-0.075-0.424-0.166-2.782-3.06-5.241-6.367-7.353-9.932-2.936-4.641-5.105-9.814-6.429-15.539 0-0.117-0.051-0.224-0.143-0.315-0.039-0.029-0.121-0.033-0.206-0.013-0.1 0.023-0.192 0.067-0.248 0.115-0.165 0.184-0.269 0.365-0.319 0.539-0.206 0.635-0.281 1.24-0.199 1.813-0.667 3.768-1.036 7.349-1.154 10.75 0.063 1.695 0.198 3.344 0.398 4.95 0.065 1.532 0.272 3.009 0.625 4.43 0.517 3.166 1.355 6.149 2.481 8.955-6.379 2.714-12.375 5.41-17.983 8.079-2.498 1.137-4.878 2.282-7.134 3.437-2.403 1.17-4.731 2.328-6.981 3.483-4.112 2.201-7.959 4.367-11.54 6.499-0.657 0.311-1.237 0.638-1.728 0.976-0.144 0.089-0.246 0.188-0.312 0.281 0 0 0.011 0.049 0.062 0.061 0.04 0.011 0.105 9e-3 0.161-6e-3 0.159-0.048 0.302-0.103 0.424-0.165 7.145-3.171 15.062-6.339 23.711-9.466 7.096-2.613 14.624-5.218 22.565-7.8 0.214-0.084 0.468-0.134 0.702-0.147 0.235-0.011 0.427 0.018 0.534 0.082 1.62 1.412 3.073 2.844 4.376 4.282 0.948 1.102 1.857 2.191 2.729 3.276 2.264 2.725 3.884 5.494 4.885 8.274 0.345 1.621 0.681 3.205 1.011 4.754 0.109 0.629-0.034 1.294-0.413 1.978-0.269 2.407-1.269 4.831-2.956 7.227-0.937 1.487-2.136 2.956-3.561 4.411-0.477 0.578-1.134 1.158-1.954 1.736-1.312 1.068-2.65 2.122-4.024 3.158-1.772 1.202-3.686 2.382-5.735 3.533-1.077 0.481-2.101 0.964-3.065 1.45-0.783 0.346-1.586 0.687-2.409 1.029-0.053 0.027-0.063 0.072-0.063 0.072s0.084 0.021 0.154 0.011c0.043-8e-3 0.084-0.016 0.127-0.022 0.317-0.086 0.598-0.183 0.836-0.286 2.689-0.966 5.122-2.001 7.241-3.079 3.235-1.51 6.16-3.094 8.73-4.735 1.244-0.734 2.295-1.481 3.13-2.238 2.348-1.587 4.377-3.221 6.051-4.88 1.495-1.506 2.805-3.025 3.899-4.571 0.298-0.84 0.785-1.72 1.486-2.624 2.52-4.432 3.307-8.934 2.161-13.351-0.256-2.333-0.702-4.705-1.322-7.116-0.358-0.842-0.668-1.703-0.923-2.588-0.445-0.93-0.959-1.856-1.543-2.776-0.504-0.571-0.882-1.18-1.121-1.831-0.07-0.137-0.142-0.274-0.22-0.408 0.373-0.135 0.746-0.272 1.121-0.409 1.695-0.659 3.464-1.295 5.298-1.891 2.779-0.984 5.565-1.997 8.356-3.039 2.532-1.016 5.125-2.027 7.774-3.036 7.476-3.022 15.129-6.203 22.968-9.544 10.242-4.152 20.578-8.731 30.934-13.734-10.356-5.006-20.692-9.584-30.934-13.737-7.839-3.34-15.492-6.522-22.968-9.544-2.649-1.008-5.242-2.02-7.774-3.035-2.791-1.042-5.577-2.055-8.356-3.039-1.834-0.597-3.603-1.232-5.298-1.892-0.375-0.137-0.748-0.273-1.121-0.408 0.078-0.134 0.15-0.272 0.22-0.408 0.239-0.651 0.617-1.26 1.121-1.831 0.584-0.919 1.098-1.846 1.543-2.776 0.255-0.886 0.565-1.747 0.923-2.588 0.62-2.412 1.066-4.784 1.322-7.117 1.146-4.417 0.359-8.918-2.161-13.351-0.701-0.905-1.188-1.782-1.486-2.624-1.094-1.545-2.404-3.063-3.899-4.569-1.674-1.661-3.703-3.296-6.051-4.882-0.835-0.756-1.886-1.503-3.13-2.239-2.57-1.64-5.495-3.224-8.73-4.73-2.119-1.084-4.552-2.117-7.241-3.082-0.238-0.106-0.519-0.2-0.836-0.287-0.043-5e-3 -0.084-0.014-0.127-0.023-0.07-0.011-0.154 0.011-0.154 0.011s0.01 0.05 0.063 0.073c0.823 0.343 1.626 0.682 2.409 1.029 0.964 0.485 1.988 0.968 3.065 1.451 2.049 1.148 3.963 2.33 5.735 3.533 1.374 1.039 2.712 2.09 4.024 3.158 0.82 0.578 1.477 1.156 1.954 1.735 1.425 1.456 2.624 2.923 3.561 4.412 1.687 2.397 2.687 4.82 2.956 7.228 0.379 0.684 0.522 1.347 0.413 1.975-0.33 1.551-0.666 3.135-1.011 4.753-1.001 2.783-2.621 5.551-4.885 8.276-0.872 1.086-1.781 2.176-2.729 3.276-1.303 1.439-2.756 2.871-4.376 4.282-0.107 0.066-0.299 0.093-0.534 0.081-0.234-0.011-0.488-0.064-0.702-0.145-7.941-2.583-15.469-5.188-22.565-7.8-8.649-3.128-16.566-6.295-23.711-9.465-0.122-0.063-0.265-0.118-0.424-0.167-0.056-0.015-0.121-0.017-0.161-6e-3 -0.051 0.012-0.062 0.061-0.062 0.061 0.066 0.094 0.168 0.192 0.312 0.281 0.491 0.338 1.071 0.665 1.728 0.975 3.581 2.133 7.428 4.299 11.54 6.501 2.25 1.154 4.578 2.312 6.981 3.484 2.256 1.155 4.636 2.297 7.134 3.437 5.608 2.668 11.604 5.363 17.983 8.078-1.126 2.807-1.964 5.787-2.481 8.955-0.353 1.421-0.56 2.898-0.625 4.431-0.2 1.605-0.335 3.254-0.398 4.949 0.118 3.4 0.487 6.982 1.154 10.749-0.082 0.573-7e-3 1.179 0.199 1.814 0.05 0.174 0.154 0.355 0.319 0.539 0.056 0.048 0.148 0.092 0.248 0.115 0.085 0.02 0.167 0.015 0.206-0.014 0.092-0.09 0.143-0.198 0.143-0.316 1.324-5.724 3.493-10.897 6.429-15.537 2.112-3.566 4.571-6.873 7.353-9.933 0.05-0.09 0.201-0.152 0.424-0.165 0.222-0.014 0.494 0.017 0.754 0.093 5.018 1.644 10.086 3.372 15.206 5.18 3.997 1.432 8.049 2.891 12.158 4.393 11.027 3.984 22.306 8.377 33.824 13.192 2.412 1.057 4.855 2.127 7.324 3.21"/><path d="m87.833 343.99c2.467 1.081 4.907 2.15 7.322 3.207 11.517 4.816 22.796 9.207 33.822 13.193 4.108 1.498 8.161 2.962 12.158 4.392 5.119 1.812 10.189 3.534 15.207 5.181 0.259 0.076 0.532 0.106 0.755 0.093 0.222-0.014 0.372-0.075 0.424-0.166 2.782-3.058 5.242-6.364 7.351-9.933 2.936-4.64 5.1-9.814 6.429-15.538-4e-3 -0.117 0.05-0.227 0.144-0.315 0.04-0.026 0.121-0.035 0.206-0.014 0.1 0.022 0.19 0.068 0.247 0.116 0.166 0.182 0.271 0.365 0.319 0.539 0.206 0.635 0.281 1.24 0.199 1.813 0.667 3.768 1.041 7.349 1.154 10.75-0.062 1.695-0.198 3.344-0.396 4.95-0.071 1.532-0.273 3.009-0.625 4.43-0.527 3.165-1.356 6.149-2.482 8.955 6.378 2.714 12.374 5.412 17.983 8.079 2.498 1.138 4.877 2.284 7.134 3.437 2.405 1.168 4.731 2.328 6.982 3.483 4.112 2.2 7.957 4.369 11.538 6.499 0.657 0.311 1.237 0.638 1.729 0.976 0.143 0.09 0.252 0.183 0.313 0.281 0 0-0.013 0.049-0.062 0.061-0.043 0.011-0.106 7e-3 -0.163-6e-3 -0.158-0.047-0.302-0.102-0.424-0.165-7.147-3.169-15.061-6.339-23.709-9.466-7.097-2.616-14.625-5.218-22.565-7.8-0.216-0.081-0.47-0.134-0.704-0.147-0.235-0.011-0.428 0.018-0.533 0.082-1.615 1.415-3.076 2.843-4.377 4.282-0.95 1.099-1.855 2.195-2.728 3.276-2.262 2.728-3.886 5.494-4.886 8.274-0.346 1.621-0.679 3.205-1.011 4.754-0.104 0.629 0.031 1.296 0.414 1.978 0.267 2.407 1.273 4.829 2.956 7.227 0.939 1.488 2.132 2.959 3.562 4.411 0.476 0.577 1.132 1.16 1.953 1.736 1.31 1.069 2.648 2.126 4.023 3.158 1.771 1.206 3.687 2.385 5.735 3.533 1.078 0.481 2.099 0.967 3.065 1.45 0.782 0.351 1.585 0.69 2.408 1.029 0.058 0.022 0.066 0.072 0.066 0.072s-0.085 0.02-0.155 0.011c-0.043-7e-3 -0.086-0.01-0.128-0.022-0.317-0.083-0.602-0.179-0.835-0.286-2.69-0.962-5.124-1.997-7.24-3.079-3.234-1.514-6.162-3.095-8.731-4.735-1.243-0.735-2.292-1.485-3.13-2.238-2.347-1.589-4.377-3.221-6.051-4.88-1.495-1.506-2.802-3.028-3.899-4.571-0.294-0.841-0.785-1.72-1.486-2.624-2.517-4.435-3.306-8.934-2.163-13.351 0.263-2.332 0.706-4.704 1.324-7.116 0.362-0.84 0.665-1.704 0.921-2.588 0.443-0.932 0.959-1.856 1.545-2.776 0.502-0.572 0.881-1.18 1.119-1.831 0.069-0.138 0.146-0.273 0.222-0.408-0.373-0.137-0.747-0.271-1.12-0.409-1.694-0.661-3.466-1.293-5.3-1.891-2.779-0.983-5.566-1.996-8.356-3.039-2.534-1.015-5.125-2.027-7.772-3.036-7.475-3.026-15.129-6.203-22.971-9.544-10.239-4.152-20.573-8.731-30.929-13.734 10.356-5.006 20.69-9.585 30.929-13.737 7.842-3.34 15.496-6.519 22.971-9.544 2.647-1.008 5.238-2.021 7.772-3.035 2.79-1.044 5.577-2.056 8.356-3.039 1.834-0.6 3.606-1.23 5.3-1.892 0.373-0.139 0.747-0.272 1.12-0.408-0.076-0.137-0.153-0.271-0.222-0.408-0.238-0.651-0.617-1.258-1.119-1.831-0.586-0.919-1.102-1.845-1.545-2.776-0.256-0.885-0.559-1.747-0.921-2.588-0.618-2.412-1.061-4.785-1.324-7.117-1.143-4.417-0.354-8.917 2.163-13.351 0.701-0.905 1.192-1.782 1.486-2.624 1.097-1.542 2.404-3.065 3.899-4.569 1.674-1.661 3.704-3.292 6.051-4.882 0.838-0.754 1.887-1.503 3.13-2.239 2.569-1.639 5.497-3.222 8.731-4.73 2.116-1.086 4.55-2.122 7.24-3.082 0.233-0.109 0.518-0.205 0.835-0.287 0.042-0.012 0.085-0.014 0.128-0.023 0.07-7e-3 0.155 0.011 0.155 0.011s-8e-3 0.052-0.066 0.073c-0.823 0.339-1.626 0.679-2.408 1.029-0.966 0.483-1.987 0.968-3.065 1.451-2.048 1.148-3.964 2.326-5.735 3.533-1.375 1.031-2.713 2.09-4.023 3.158-0.821 0.576-1.477 1.156-1.953 1.735-1.43 1.45-2.623 2.923-3.562 4.412-1.683 2.399-2.689 4.82-2.956 7.228-0.383 0.681-0.518 1.347-0.414 1.975 0.332 1.551 0.665 3.135 1.011 4.753 1 2.783 2.624 5.549 4.886 8.276 0.873 1.083 1.778 2.176 2.728 3.276 1.301 1.44 2.762 2.865 4.377 4.282 0.105 0.066 0.298 0.093 0.533 0.081 0.234-0.011 0.488-0.065 0.704-0.145 7.94-2.583 15.468-5.185 22.565-7.8 8.648-3.128 16.562-6.298 23.709-9.465 0.122-0.064 0.266-0.12 0.424-0.167 0.057-0.013 0.12-0.017 0.163-6e-3 0.049 0.012 0.062 0.061 0.062 0.061-0.061 0.099-0.17 0.19-0.313 0.281-0.492 0.338-1.072 0.665-1.729 0.975-3.581 2.133-7.426 4.302-11.538 6.501-2.251 1.154-4.577 2.314-6.982 3.484-2.257 1.152-4.636 2.297-7.134 3.437-5.609 2.666-11.605 5.363-17.983 8.078 1.126 2.807 1.955 5.79 2.482 8.955 0.352 1.421 0.554 2.898 0.625 4.431 0.198 1.605 0.334 3.254 0.396 4.949-0.113 3.4-0.487 6.982-1.154 10.749 0.082 0.573 7e-3 1.179-0.199 1.814-0.048 0.174-0.153 0.356-0.319 0.539-0.057 0.048-0.147 0.093-0.247 0.115-0.085 0.021-0.166 0.013-0.206-0.014-0.094-0.088-0.148-0.198-0.144-0.316-1.329-5.723-3.493-10.897-6.429-15.536-2.109-3.57-4.569-6.876-7.351-9.934-0.052-0.09-0.202-0.152-0.424-0.165-0.223-0.014-0.496 0.016-0.755 0.093-5.018 1.647-10.088 3.37-15.207 5.18-3.997 1.43-8.05 2.894-12.158 4.393-11.026 3.985-22.305 8.377-33.822 13.192-2.415 1.057-4.855 2.127-7.322 3.21"/><path d="m330.68 371.94c-1.136 1.268-2.315 2.505-3.539 3.709 1.258 1.188 2.437 2.372 3.539 3.551 1.098-1.179 2.278-2.363 3.535-3.551-1.225-1.204-2.404-2.441-3.535-3.709m0-55.89c1.131-1.269 2.31-2.505 3.535-3.709-1.257-1.19-2.437-2.373-3.535-3.551-1.102 1.178-2.281 2.361-3.539 3.551 1.224 1.204 2.403 2.44 3.539 3.709m0 77.93c-3.71-4.323-8.472-8.766-14.32-13.286-1.86-1.404-3.729-2.837-5.615-4.302-0.295-0.248-0.6-0.496-0.91-0.743 0.249-0.248 0.493-0.497 0.73-0.75 1.569-1.519 3.187-3.059 4.86-4.623 5.671-5.448 10.786-11.504 15.255-18.2 4.465 6.696 9.581 12.752 15.252 18.2 1.672 1.564 3.291 3.104 4.86 4.623 0.238 0.253 0.48 0.502 0.731 0.75-0.311 0.247-0.616 0.495-0.914 0.743-1.885 1.465-3.752 2.898-5.611 4.302-5.85 4.52-10.612 8.963-14.318 13.286m0-99.968c3.706 4.32 8.468 8.763 14.318 13.283 1.859 1.403 3.726 2.837 5.611 4.302 0.298 0.25 0.603 0.496 0.914 0.744-0.251 0.246-0.493 0.497-0.731 0.751-1.569 1.517-3.188 3.056-4.86 4.621-5.671 5.449-10.787 11.504-15.252 18.201-4.469-6.697-9.584-12.752-15.255-18.201-1.673-1.564-3.291-3.104-4.86-4.621-0.237-0.254-0.481-0.505-0.73-0.751 0.31-0.248 0.615-0.494 0.91-0.744 1.886-1.465 3.755-2.899 5.615-4.302 5.848-4.52 10.61-8.963 14.32-13.283m-14.817 49.984c-0.027 0.071-0.057 0.143-0.085 0.216-2.035 4.974-4.511 9.621-7.377 13.944-2.069 3.074-4.533 5.948-7.362 8.609-1.605 1.875-3.335 3.673-5.184 5.388-1.275 1.194-2.568 2.357-3.874 3.496 1.818 1.125 3.58 2.241 5.291 3.353 2.394 1.549 4.611 3.106 6.653 4.667 3.237 2.108 6.034 4.251 8.376 6.41 3.03 2.82 5.558 5.602 7.592 8.325 1.028 1.433 1.81 2.86 2.349 4.271 0.638 0.847 1.069 1.704 1.289 2.559 0.914 2.516 1.054 4.963 0.46 7.301-0.154 1.449-0.687 2.852-1.579 4.197-0.087 0.179-0.234 0.354-0.438 0.519-0.042 0.027-0.109 0.048-0.189 0.061l-0.085-1e-3 -0.066-0.026c-0.011-0.04-0.019-0.08-0.03-0.121 0.18-0.816 0.243-1.647 0.188-2.49 0.074-0.574 0.057-1.154-0.064-1.739-0.414-1.833-1.164-3.712-2.253-5.624-1.27-1.91-2.774-3.86-4.519-5.844-1.996-1.687-4.012-3.423-6.046-5.208-7.927-6.037-17.747-12.317-29.539-18.761-1.114-0.619-2.255-1.233-3.418-1.849 0.76-0.619 1.507-1.249 2.242-1.891 8.547-7.329 16.409-15.811 23.454-25.593 0.811-1.371 1.641-2.761 2.493-4.169-0.852-1.411-1.682-2.8-2.493-4.172-7.045-9.782-14.907-18.264-23.454-25.593-0.735-0.64-1.482-1.272-2.242-1.89 1.163-0.616 2.304-1.233 3.418-1.849 11.792-6.443 21.612-12.725 29.539-18.762 2.034-1.784 4.05-3.519 6.046-5.208 1.745-1.983 3.249-3.933 4.519-5.842 1.089-1.914 1.839-3.791 2.253-5.625 0.121-0.585 0.138-1.166 0.064-1.739 0.055-0.842-8e-3 -1.675-0.188-2.491 0.011-0.039 0.019-0.08 0.03-0.12l0.066-0.026 0.085-2e-3c0.08 0.014 0.147 0.035 0.189 0.061 0.204 0.165 0.351 0.34 0.438 0.52 0.892 1.344 1.425 2.746 1.579 4.195 0.594 2.338 0.454 4.788-0.46 7.302-0.22 0.854-0.651 1.711-1.289 2.561-0.539 1.408-1.321 2.836-2.349 4.269-2.034 2.725-4.562 5.505-7.592 8.324-2.342 2.16-5.139 4.304-8.376 6.412-2.042 1.56-4.259 3.117-6.653 4.667-1.711 1.111-3.473 2.228-5.291 3.353 1.306 1.139 2.599 2.302 3.874 3.495 1.849 1.715 3.579 3.514 5.184 5.389 2.829 2.661 5.293 5.534 7.362 8.608 2.866 4.325 5.342 8.97 7.377 13.945 0.028 0.071 0.058 0.144 0.085 0.218m41.351 0c0.851 1.408 1.682 2.798 2.494 4.169 7.044 9.782 14.907 18.264 23.454 25.593 0.733 0.642 1.481 1.272 2.24 1.891-1.161 0.616-2.302 1.23-3.415 1.849-11.793 6.444-21.613 12.724-29.54 18.761-2.035 1.785-4.051 3.521-6.05 5.208-1.741 1.984-3.245 3.934-4.516 5.844-1.089 1.913-1.838 3.791-2.255 5.624-0.117 0.585-0.138 1.165-0.061 1.739-0.056 0.843 8e-3 1.674 0.191 2.49-0.014 0.041-0.026 0.081-0.032 0.121l-0.067 0.026-0.086 1e-3c-0.078-0.013-0.146-0.033-0.188-0.061-0.203-0.165-0.353-0.34-0.437-0.519-0.892-1.344-1.428-2.748-1.581-4.197-0.594-2.338-0.453-4.785 0.459-7.301 0.223-0.855 0.651-1.712 1.291-2.559 0.537-1.411 1.32-2.838 2.349-4.271 2.034-2.723 4.562-5.505 7.592-8.325 2.342-2.159 5.139-4.302 8.376-6.41 2.041-1.561 4.259-3.118 6.652-4.667 1.712-1.112 3.476-2.228 5.291-3.353-1.307-1.139-2.597-2.304-3.875-3.496-1.848-1.715-3.577-3.513-5.183-5.388-2.829-2.661-5.294-5.535-7.36-8.609-2.868-4.323-5.344-8.969-7.38-13.944-0.026-0.073-0.056-0.145-0.084-0.216 0.028-0.074 0.058-0.147 0.084-0.218 2.036-4.975 4.512-9.62 7.38-13.945 2.066-3.074 4.531-5.947 7.36-8.608 1.606-1.875 3.335-3.674 5.183-5.389 1.278-1.192 2.568-2.356 3.875-3.495-1.815-1.125-3.579-2.242-5.291-3.353-2.393-1.55-4.611-3.107-6.652-4.667-3.237-2.108-6.034-4.252-8.376-6.412-3.03-2.819-5.558-5.599-7.592-8.324-1.029-1.433-1.812-2.861-2.349-4.269-0.64-0.85-1.068-1.707-1.291-2.561-0.912-2.514-1.053-4.964-0.459-7.302 0.153-1.449 0.689-2.851 1.581-4.195 0.084-0.18 0.234-0.355 0.437-0.52 0.042-0.026 0.11-0.047 0.188-0.061l0.086 2e-3 0.067 0.026c6e-3 0.04 0.018 0.081 0.032 0.12-0.183 0.816-0.247 1.649-0.191 2.491-0.077 0.573-0.056 1.154 0.061 1.739 0.417 1.834 1.166 3.711 2.255 5.625 1.271 1.909 2.775 3.859 4.516 5.842 1.999 1.689 4.015 3.424 6.05 5.208 7.927 6.037 17.747 12.319 29.54 18.762 1.113 0.616 2.254 1.233 3.415 1.849-0.759 0.618-1.507 1.25-2.24 1.89-8.547 7.329-16.41 15.811-23.454 25.593-0.812 1.372-1.643 2.761-2.494 4.172m-155.28 31.653c0.128 0.064 0.254 0.13 0.382 0.194 0.112 0.061 0.257 0.105 0.408 0.132 0.044 4e-3 0.087 7e-3 0.128 7e-3 0.042 0 0.081-3e-3 0.12-7e-3 0.109-0.027 0.179-0.074 0.202-0.132 0.025-0.066 0.056-0.128 0.081-0.194-0.127-0.063-0.257-0.126-0.382-0.194-0.113-0.058-0.257-0.106-0.408-0.133-0.045-4e-3 -0.09-6e-3 -0.13-5e-3 -0.042-1e-3 -0.082 0-0.12 5e-3 -0.11 0.027-0.182 0.073-0.201 0.133-0.029 0.064-0.057 0.128-0.08 0.194m0-63.308c0.023 0.065 0.051 0.131 0.08 0.195 0.019 0.059 0.091 0.105 0.201 0.131 0.038 5e-3 0.078 7e-3 0.12 6e-3 0.04 0 0.085-1e-3 0.13-6e-3 0.151-0.026 0.295-0.072 0.408-0.131 0.125-0.07 0.255-0.132 0.382-0.195-0.025-0.067-0.056-0.129-0.081-0.196-0.023-0.056-0.093-0.103-0.202-0.13-0.039-4e-3 -0.078-8e-3 -0.12-8e-3 -0.041 0-0.084 4e-3 -0.128 8e-3 -0.151 0.024-0.296 0.069-0.408 0.13-0.128 0.065-0.254 0.13-0.382 0.196m257.49 63.308c-0.026-0.066-0.057-0.129-0.08-0.194-0.023-0.058-0.094-0.106-0.203-0.133-0.039-5e-3 -0.078-6e-3 -0.122-5e-3 -0.038-1e-3 -0.084 1e-3 -0.127 5e-3 -0.15 0.027-0.297 0.07-0.409 0.133-0.128 0.064-0.254 0.131-0.381 0.194 0.024 0.066 0.052 0.13 0.08 0.194 0.021 0.06 0.092 0.105 0.202 0.132 0.04 4e-3 0.081 7e-3 0.12 7e-3 0.042 0 0.086-3e-3 0.13-7e-3 0.15-0.027 0.294-0.074 0.406-0.132 0.127-0.066 0.256-0.13 0.384-0.194m0-63.308c-0.128-0.066-0.257-0.129-0.384-0.196-0.112-0.056-0.256-0.106-0.406-0.13-0.044-4e-3 -0.088-8e-3 -0.13-8e-3 -0.039 0-0.08 4e-3 -0.12 8e-3 -0.11 0.027-0.181 0.073-0.202 0.13-0.028 0.065-0.056 0.129-0.08 0.196 0.127 0.063 0.253 0.131 0.381 0.195 0.112 0.062 0.259 0.105 0.409 0.131 0.043 5e-3 0.089 6e-3 0.127 6e-3 0.044 0 0.083-1e-3 0.122-6e-3 0.109-0.026 0.18-0.074 0.203-0.131 0.023-0.066 0.054-0.13 0.08-0.195m-238.69 63.308-0.018 0.03c-3.554 5.038-5.685 10.047-6.486 14.946-8.413-4.897-18.33-9.909-29.714-14.946l-0.066-0.03 0.013-0.03c2.61-5.367 3.963-11.45 3.908-18.27 10.549 6.817 21.353 12.9 32.304 18.27zm0-63.308-0.059 0.03c-10.951 5.369-21.755 11.453-32.304 18.27 0.055-6.82-1.298-12.905-3.908-18.27l-0.013-0.03 0.066-0.03c11.384-5.037 21.301-10.049 29.714-14.945 0.801 4.896 2.932 9.906 6.486 14.945zm219.88 63.308 0.06-0.03c10.95-5.367 21.753-11.453 32.303-18.27-0.055 6.82 1.306 12.899 3.908 18.27l0.012 0.03-0.065 0.03c-11.384 5.038-21.302 10.049-29.713 14.946-0.803-4.899-2.932-9.909-6.485-14.946zm0-63.308 0.02-0.03c3.553-5.037 5.682-10.049 6.485-14.945 8.411 4.896 18.329 9.906 29.713 14.945l0.065 0.03-0.012 0.03c-2.602 5.371-3.963 11.45-3.908 18.27-10.55-6.817-21.353-12.902-32.303-18.27zm-388.77 31.655c3.042 1.407 6.033 2.797 8.976 4.169 22.251 9.78 43.298 18.264 63.236 25.593 1.73 0.64 3.456 1.27 5.18 1.891-0.201 0.617-0.392 1.23-0.546 1.849-1.777 6.443-1.833 12.722-0.376 18.761 0.738 1.785 1.418 3.521 2.047 5.208 1.34 1.982 2.861 3.936 4.564 5.844 1.883 1.911 4.052 3.794 6.488 5.624 0.792 0.581 1.672 1.167 2.641 1.739 1.253 0.843 2.608 1.674 4.058 2.49 0.05 0.043 0.106 0.078 0.156 0.121l-0.025 0.026-0.082 1e-3c-0.099-0.01-0.2-0.032-0.284-0.061-0.461-0.167-0.881-0.339-1.244-0.519-2.984-1.34-5.7-2.747-8.103-4.197-4.227-2.338-7.887-4.791-10.888-7.301-1.107-0.857-2.009-1.713-2.691-2.559-1.651-1.413-3.082-2.842-4.287-4.271-2.198-2.728-3.999-5.503-5.349-8.325-1.014-2.158-1.543-4.302-1.586-6.41-0.386-1.561-0.588-3.118-0.602-4.667-0.019-1.111 0.018-2.228 0.08-3.353-3.076-1.139-6.177-2.308-9.306-3.496-4.516-1.718-9.039-3.513-13.562-5.388-6.962-2.661-13.894-5.535-20.74-8.609-9.587-4.324-19.285-8.968-29.051-13.944-0.141-0.073-0.281-0.145-0.422-0.216 0.141-0.074 0.281-0.147 0.422-0.218 9.766-4.976 19.464-9.62 29.051-13.945 6.846-3.073 13.778-5.947 20.74-8.608 4.523-1.874 9.046-3.67 13.562-5.389 3.129-1.188 6.23-2.356 9.306-3.495-0.062-1.127-0.099-2.242-0.08-3.353 0.014-1.55 0.216-3.108 0.602-4.667 0.043-2.108 0.572-4.255 1.586-6.412 1.35-2.822 3.151-5.595 5.349-8.324 1.205-1.428 2.636-2.855 4.287-4.269 0.682-0.846 1.584-1.705 2.691-2.561 3.001-2.509 6.661-4.964 10.888-7.302 2.403-1.449 5.119-2.853 8.103-4.195 0.363-0.18 0.783-0.355 1.244-0.52 0.084-0.03 0.185-0.05 0.284-0.061l0.082 2e-3 0.025 0.026c-0.05 0.04-0.106 0.078-0.156 0.12-1.45 0.816-2.805 1.649-4.058 2.491-0.969 0.571-1.849 1.157-2.641 1.739-2.436 1.831-4.605 3.713-6.488 5.625-1.703 1.909-3.224 3.86-4.564 5.842-0.629 1.688-1.309 3.425-2.047 5.208-1.457 6.04-1.401 12.319 0.376 18.762 0.154 0.616 0.345 1.233 0.546 1.849-1.724 0.619-3.45 1.252-5.18 1.89-19.938 7.329-40.985 15.813-63.236 25.593-2.943 1.372-5.934 2.762-8.976 4.172m569.38 0c-0.14 0.071-0.282 0.143-0.422 0.216-9.764 4.979-19.464 9.62-29.053 13.944-6.845 3.075-13.777 5.951-20.738 8.609-4.522 1.879-9.046 3.673-13.563 5.388-3.128 1.192-6.229 2.357-9.306 3.496 0.071 1.125 0.095 2.242 0.08 3.353-0.018 1.549-0.211 3.108-0.601 4.667-0.034 2.108-0.573 4.252-1.586 6.41-1.354 2.82-3.147 5.603-5.349 8.325-1.203 1.431-2.636 2.857-4.29 4.271-0.678 0.846-1.583 1.702-2.687 2.559-3 2.512-6.66 4.963-10.89 7.301-2.404 1.448-5.12 2.853-8.1 4.197-0.368 0.178-0.785 0.351-1.246 0.519-0.085 0.029-0.183 0.051-0.284 0.061-0.034 5e-3 -0.084-1e-3 -0.084-1e-3l-0.023-0.026c0.051-0.043 0.107-0.078 0.156-0.121 1.447-0.818 2.804-1.646 4.057-2.49 0.971-0.57 1.849-1.156 2.642-1.739 2.437-1.83 4.605-3.712 6.488-5.624 1.703-1.908 3.224-3.861 4.562-5.844 0.627-1.689 1.315-3.422 2.048-5.208 1.463-6.037 1.399-12.318-0.375-18.761-0.154-0.619-0.336-1.234-0.546-1.849 1.724-0.617 3.447-1.253 5.18-1.891 19.935-7.332 40.985-15.811 63.235-25.593 2.945-1.371 5.938-2.761 8.978-4.169-3.04-1.411-6.033-2.8-8.978-4.172-22.25-9.782-43.3-18.259-63.235-25.593-1.733-0.638-3.456-1.273-5.18-1.89 0.21-0.613 0.392-1.233 0.546-1.849 1.774-6.443 1.838-12.722 0.375-18.762-0.733-1.787-1.421-3.519-2.048-5.208-1.338-1.982-2.859-3.933-4.562-5.842-1.883-1.914-4.051-3.794-6.488-5.625-0.793-0.582-1.671-1.168-2.642-1.739-1.253-0.842-2.61-1.672-4.057-2.491-0.049-0.042-0.105-0.08-0.156-0.12l0.023-0.026s0.05-8e-3 0.084-2e-3c0.101 0.011 0.199 0.031 0.284 0.061 0.461 0.169 0.878 0.342 1.246 0.52 2.98 1.344 5.696 2.75 8.1 4.195 4.23 2.338 7.89 4.79 10.89 7.302 1.104 0.856 2.009 1.715 2.687 2.561 1.654 1.414 3.087 2.837 4.29 4.269 2.202 2.723 3.995 5.505 5.349 8.324 1.013 2.157 1.552 4.304 1.586 6.412 0.39 1.558 0.583 3.117 0.601 4.667 0.015 1.111-9e-3 2.228-0.08 3.353 3.077 1.139 6.178 2.303 9.306 3.495 4.517 1.715 9.041 3.509 13.563 5.389 6.961 2.657 13.893 5.534 20.738 8.608 9.589 4.325 19.289 8.965 29.053 13.945 0.14 0.071 0.282 0.144 0.422 0.218m-600.42 0c5.733 2.75 11.358 5.414 16.882 7.996 14.94 6.732 29.529 12.816 43.727 18.284 4.103 1.565 8.118 3.101 12.046 4.623 0.631 0.25 1.264 0.499 1.896 0.75 0.077 0.247 0.153 0.495 0.245 0.743 0.389 1.465 0.752 2.897 1.071 4.302 1.178 4.538 3.342 8.995 6.365 13.335 1.45 1.798 2.936 3.569 4.48 5.299 1.765 1.629 3.582 3.22 5.435 4.78 2.48 2.041 5.3 4.038 8.418 5.985 0.341 0.177 0.623 0.362 0.846 0.54 0 0 6e-3 0.042-0.037 0.055-0.033 6e-3 -0.093 7e-3 -0.152-7e-3 -0.112-0.02-0.218-0.052-0.304-0.086-6.907-3.141-13.249-6.51-18.849-10.058-1.115-0.67-2.181-1.35-3.196-2.031-1.264-0.926-2.589-1.863-3.969-2.815-4.016-2.982-7.415-6.051-10.108-9.156-0.656-1.003-1.538-2.044-2.639-3.116-1.975-2.563-3.614-5.161-4.913-7.77-6.931-2.698-13.898-5.555-20.874-8.578-2.771-1.332-5.738-2.655-8.878-3.965-9.576-4.311-18.991-8.967-28.098-13.939-2.964-1.68-6.022-3.402-9.183-5.146-0.015-9e-3 -0.029-0.018-0.045-0.025 0.016-0.01 0.03-0.018 0.045-0.027 3.161-1.745 6.219-3.467 9.183-5.147 9.107-4.972 18.522-9.627 28.098-13.938 3.14-1.311 6.107-2.635 8.878-3.966 6.976-3.022 13.943-5.879 20.874-8.577 1.299-2.611 2.938-5.206 4.913-7.77 1.101-1.073 1.983-2.113 2.639-3.117 2.693-3.103 6.092-6.173 10.108-9.156 1.38-0.952 2.705-1.888 3.969-2.816 1.015-0.679 2.081-1.36 3.196-2.029 5.6-3.549 11.942-6.919 18.849-10.057 0.086-0.037 0.192-0.069 0.304-0.088 0.059-0.012 0.119-0.012 0.152-5e-3 0.043 0.011 0.037 0.054 0.037 0.054-0.223 0.177-0.505 0.364-0.846 0.541-3.118 1.946-5.938 3.944-8.418 5.982-1.853 1.561-3.67 3.15-5.435 4.78-1.544 1.732-3.03 3.502-4.48 5.3-3.023 4.341-5.187 8.797-6.365 13.335-0.319 1.403-0.682 2.837-1.071 4.302-0.092 0.25-0.168 0.497-0.245 0.744-0.632 0.25-1.265 0.499-1.896 0.751-3.928 1.519-7.943 3.056-12.046 4.621-14.198 5.469-28.787 11.554-43.727 18.285-5.524 2.581-11.149 5.246-16.882 7.998m629.58 0c-0.015 7e-3 -0.032 0.016-0.045 0.025-3.164 1.74-6.219 3.465-9.182 5.146-9.11 4.972-18.523 9.628-28.1 13.939-3.137 1.313-6.106 2.638-8.878 3.965-6.975 3.025-13.941 5.88-20.873 8.578-1.299 2.609-2.933 5.212-4.915 7.77-1.095 1.078-1.979 2.114-2.64 3.116-2.692 3.106-6.088 6.173-10.106 9.156-1.38 0.951-2.704 1.889-3.968 2.815-1.016 0.681-2.08 1.361-3.198 2.031-5.602 3.546-11.94 6.916-18.849 10.058-0.084 0.034-0.189 0.063-0.301 0.086-0.062 0.013-0.154 7e-3 -0.154 7e-3 -0.042-0.011-0.037-0.055-0.037-0.055 0.224-0.177 0.506-0.359 0.846-0.54 3.119-1.944 5.939-3.944 8.418-5.985 1.854-1.56 3.67-3.151 5.435-4.78 1.547-1.73 3.031-3.501 4.48-5.299 3.025-4.34 5.186-8.797 6.364-13.335 0.324-1.404 0.689-2.836 1.074-4.302 0.096-0.246 0.172-0.495 0.244-0.743 0.634-0.248 1.265-0.5 1.895-0.75 3.93-1.519 7.946-3.055 12.047-4.623 14.198-5.468 28.786-11.552 43.727-18.284 5.525-2.582 11.149-5.245 16.882-7.996-5.733-2.753-11.357-5.417-16.882-7.998-14.941-6.731-29.529-12.816-43.727-18.285-4.101-1.567-8.117-3.104-12.047-4.621-0.63-0.252-1.261-0.504-1.895-0.751-0.072-0.248-0.148-0.496-0.244-0.744-0.385-1.466-0.75-2.899-1.074-4.302-1.178-4.538-3.339-8.994-6.364-13.335-1.449-1.798-2.933-3.568-4.48-5.3-1.765-1.63-3.581-3.219-5.435-4.78-2.479-2.038-5.299-4.038-8.418-5.982-0.34-0.182-0.622-0.364-0.846-0.541 0 0-5e-3 -0.045 0.037-0.054 0 0 0.092-7e-3 0.154 5e-3 0.112 0.025 0.217 0.051 0.301 0.088 6.909 3.138 13.247 6.51 18.849 10.057 1.118 0.669 2.182 1.35 3.198 2.029 1.264 0.928 2.588 1.867 3.968 2.816 4.018 2.983 7.414 6.053 10.106 9.156 0.661 1.004 1.545 2.039 2.64 3.117 1.982 2.557 3.616 5.159 4.915 7.77 6.932 2.698 13.898 5.552 20.873 8.577 2.772 1.327 5.741 2.653 8.878 3.966 9.577 4.311 18.99 8.966 28.1 13.938 2.963 1.681 6.018 3.407 9.182 5.147 0.013 9e-3 0.03 0.017 0.045 0.027"/></g></g></g></svg>
